<svg width="154" height="153" viewBox="0 0 154 153" fill="none" xmlns="http://www.w3.org/2000/svg">
<path d="M74.6689 0H79.6318L82.6396 0.448242L85.1963 0.971191L87.2266 1.56885L89.7832 2.54004L92.0391 3.66064L93.8438 4.78125L95.2725 5.82715L96.0996 6.49951L97.0771 7.396L97.4531 7.69482L97.9795 8.29248L98.8066 9.18896L99.7842 10.459L100.536 11.5796L101.438 13.1484L102.19 14.7173L102.867 16.5103L103.394 18.3779L103.77 20.3203L103.995 22.2627L104.07 23.8315V24.8774L103.995 26.7451L103.694 29.2852L103.394 30.9287L103.318 31.4517L104.146 30.7793L105.123 29.9575L106.025 29.2852L107.304 28.3887L108.958 27.3428L110.913 26.2969L113.019 25.4004L115.35 24.6533L117.53 24.2051L119.185 23.981L120.237 23.9062H122.042L123.847 24.0557L125.727 24.3545L127.531 24.8027L129.486 25.4751L131.216 26.2222L132.945 27.1187L134.6 28.1646L136.028 29.2104L137.006 30.0322L137.833 30.7046L139.638 32.4976L140.164 33.0952L141.066 34.1411L142.119 35.5605L142.796 36.5317L143.773 38.1006L144.676 39.7441L145.503 41.4624L146.33 43.5542L147.007 45.646L147.533 47.8872L147.834 49.6802L147.984 51.249L148.06 52.6685V53.5649L147.909 55.9556L147.533 58.3462L147.157 59.8403L146.405 62.0815L145.503 64.0239L144.525 65.7422L143.773 66.7881L143.097 67.6846L142.42 68.4316L141.894 69.0293L141.292 69.7017H141.142V69.8511L140.54 70.374L139.788 71.0464L138.284 72.167L136.931 73.0635L135.502 73.8853L133.772 74.7817L131.517 75.7529L129.562 76.4253H129.411V76.5747L130.088 76.7241L132.795 77.77L134.675 78.6665L136.63 79.7124L138.435 80.9077L139.187 81.5054L140.014 82.1777L140.916 82.9995L141.292 83.2983L141.668 83.6719L142.57 84.6431L143.397 85.689L144.375 87.0337L145.428 88.8267L146.18 90.3955L146.781 91.8896L147.308 93.6826L147.684 95.4009L147.909 97.0444L148.06 99.4351V100.481L147.909 102.647L147.533 105.113L147.082 106.98L146.48 108.998L145.804 110.791L144.977 112.658L144.375 113.779L143.924 114.601L143.322 115.646L142.27 117.215L141.292 118.56L140.39 119.606L139.713 120.428L137.908 122.221L137.081 122.893L136.404 123.491L135.502 124.163L134.299 124.985L132.87 125.881L132.118 126.18L131.517 126.255L130.614 126.031L130.013 125.583L129.562 124.985L129.11 125.06L127.456 125.732L124.899 126.404L124.599 126.479L124.448 127.525L123.997 128.272L123.471 128.72L122.794 128.944L122.418 129.019H119.26L117.831 128.87L116.102 128.571L114.372 128.123L112.417 127.45L110.537 126.628L108.808 125.732L107.003 124.611L105.574 123.565L104.521 122.744L103.544 121.922L103.018 121.474L103.469 124.312L103.694 126.404L103.77 128.87L103.694 130.812L103.394 133.203L102.867 135.444L102.266 137.312L101.438 139.254L100.386 141.196L99.5586 142.392L98.6562 143.587L97.9043 144.409L97.3779 145.006L96.3252 146.052L94.6709 147.397L93.167 148.443L91.3623 149.489L89.5576 150.385L87.6777 151.132L86.0986 151.655L84.0684 152.178L81.7373 152.626L79.1055 153H74.5186L70.6836 152.402L68.3525 151.879L66.3975 151.282L64.292 150.46L61.8857 149.265L60.0811 148.144L59.1787 147.472L58.2012 146.725L57.2988 145.903L56.1709 144.857L55.6445 144.259L54.9678 143.512L53.9902 142.167L53.2383 141.047L52.2607 139.254L51.4336 137.312L50.7568 135.22L50.2305 132.68L50.0049 130.663L49.9297 129.617V127.45L50.0801 125.433L50.4561 122.818L50.7568 121.474L49.9297 122.146L48.9521 122.968L47.5234 124.014L45.7188 125.209L44.1396 126.105L43.0117 126.703L40.8311 127.6L39.252 128.123L37.4473 128.571L35.6426 128.87L34.2139 129.019H31.2061L29.3262 128.795L27.4463 128.421L25.8672 127.973L24.2129 127.375L22.709 126.703L21.1299 125.881L19.9268 125.134L18.498 124.163L17.2197 123.117L16.3926 122.445L15.6406 121.698L15.0391 121.175L14.0615 120.129L13.3848 119.307L12.6328 118.411L11.7305 117.215L10.6025 115.497L9.7002 113.928L8.94824 112.509L7.9707 110.268L7.06836 107.578L6.54199 105.486L6.16602 103.245L5.94043 100.556V99.4351L6.01562 97.7168L6.31641 95.4009L6.76758 93.3838L7.59473 90.9185L8.49707 88.9761L9.17383 87.7808L9.92578 86.5854L10.6777 85.6143L11.2793 84.8672L12.1816 83.896L12.8584 83.1489L14.3623 81.8042L15.791 80.7583L16.9189 80.0112L18.4229 79.1147L20.4531 78.0688L22.6338 77.1724L24.3633 76.5747H24.5137V76.4253L23.7617 76.2012L21.4307 75.3047L19.1748 74.2588L17.2949 73.2129L15.4902 72.0176L13.8359 70.6729L12.9336 69.8511L11.7305 68.6558L11.0537 67.834L10.1514 66.7134L9.24902 65.2939L8.49707 63.9492L7.89551 62.7539L7.06836 60.5874L6.54199 58.645L6.24121 57.1509L5.94043 54.3867V52.2949L6.09082 50.3525L6.4668 47.8872L7.21875 44.8989L7.9707 42.8071L8.42188 41.6865L8.87305 41.0142L9.32422 40.6406L10.001 40.3418H11.1289L11.5801 40.4165L12.2568 39.1465L12.9336 38.1006L12.7832 37.7271L12.4072 37.1294L12.2568 36.6812V35.9341L12.6328 34.9629L13.46 33.917L13.9111 33.394L14.5879 32.9458L15.0391 32.7964H15.9414L16.6182 33.0205L17.0693 33.0952L18.3477 31.8252L19.1748 31.2275L19.0996 30.854L18.9492 30.4058V29.4346L19.4004 28.5381L20.0771 27.9404L21.2803 27.1934L22.4834 26.521L24.3633 25.6245L26.6943 24.8027L28.875 24.2798L30.9053 23.981L32.1836 23.9062H33.9883L35.793 24.0557L37.9736 24.4292L40.3047 25.1016L41.8086 25.6245L44.5156 26.8945L46.2451 27.9404L47.373 28.6875L48.4258 29.4346L49.4033 30.2563L50.1553 30.854L50.9824 31.5264L50.832 30.6299L50.4561 28.1646L50.2305 25.4751V23.5327L50.3809 21.4409L50.6816 19.4985L51.1328 17.4814L51.8848 15.3149L52.5615 13.7461L53.3135 12.3267L54.0654 11.1313L55.043 9.78662L55.7197 8.96484L56.8477 7.76953L57.75 6.87305L58.3516 6.3501L59.7051 5.3042L60.457 4.78125L62.0361 3.81006L63.7656 2.91357L65.0439 2.31592L67.0742 1.56885L69.1045 0.971191L71.9619 0.373535L74.6689 0Z" fill="#FC4463"/>
<path d="M119.861 28.4634H122.343L124.223 28.6875L125.877 29.061L127.531 29.584L129.11 30.2563L131.065 31.3022L132.72 32.4229L133.923 33.394L134.675 34.0664L135.652 34.9629L136.855 36.2329L137.833 37.4282L138.811 38.7729L139.788 40.3418L140.69 41.9854L141.367 43.4048L141.818 44.5254L142.57 46.7666L143.097 49.0078L143.397 51.0996L143.473 51.9961V54.6108L143.247 56.5532L142.796 58.5703L142.194 60.3633L141.142 62.5298L140.239 63.9492L139.187 65.2939L138.059 66.4893L137.532 67.0122L136.705 67.6846L135.427 68.6558L134.6 69.1787L132.645 70.2993L130.539 71.2705L128.734 71.9429L126.479 72.6152L124.223 73.1382L122.268 73.5117L120.162 73.8105L117.154 74.1094L115.951 74.1841L113.244 74.2588L111.74 74.4082L110.988 74.8564L110.537 75.4541L110.312 76.1265V76.9482L110.612 77.6206L110.988 78.1436L111.59 78.5171L112.718 78.7412L117.831 78.9653L120.463 79.2642L123.922 79.7871L126.253 80.3101L128.734 81.0571L130.915 81.8789L133.096 82.9248L134.976 84.0454L136.254 84.9419L137.307 85.8384L138.209 86.6602L138.961 87.4072L139.638 88.229L140.465 89.3496L141.217 90.6196L141.818 91.8149L142.42 93.3091L142.946 95.1021L143.247 96.5962L143.397 97.8662L143.473 99.1362V100.78L143.322 102.498L143.021 104.291L142.57 106.159L142.194 107.354L141.743 108.699L141.066 110.193L140.089 112.061L139.111 113.779L138.585 114.526L137.983 115.348L137.758 115.721H137.607L137.457 116.02L136.78 116.842L135.652 118.037L134.675 119.008L134.073 119.531L132.945 120.428L131.968 121.1L130.915 121.772L130.013 122.445L129.712 122.818L129.411 123.565V124.238L129.562 124.91L128.584 125.284L127.456 125.732L124.899 126.404L124.523 126.33L123.997 125.358L123.396 124.835L122.644 124.611L119.561 124.537L116.778 124.088L114.823 123.491L113.62 123.042L111.891 122.221L110.236 121.324L108.808 120.353L107.83 119.606L107.003 118.934L106.176 118.187L105.574 117.664L103.469 115.572L102.792 114.75L101.814 113.629L100.837 112.359L99.7842 110.94L98.5811 109.147L97.9043 108.101L96.9268 106.532L96.4004 105.71L95.874 105.113L95.1973 104.814L94.8965 104.739H94.0693L93.3174 105.038L92.791 105.486L92.415 106.233L92.3398 106.607V107.205L92.6406 108.101L93.9189 110.492L94.6709 111.911L95.6484 113.928L96.7012 116.468L97.4531 118.56L98.0547 120.577L98.5059 122.37L98.8818 124.387L99.1074 126.18L99.1826 127.002V130.364L98.957 132.082L98.5059 134.174L97.9043 135.967L97.2275 137.461L96.4004 138.955L95.5732 140.15L94.9717 140.897L94.2949 141.645L93.7686 142.242L92.791 143.139L91.8135 143.886L91.0615 144.409L90.084 145.006L88.7305 145.753L87.3018 146.426L85.2715 147.173L83.3916 147.696L81.1357 148.144L78.5039 148.443H75.1953L73.165 148.219L71.7363 147.995L69.7061 147.546L67.9766 147.023L66.0967 146.276L64.2168 145.38L62.6377 144.409L61.4346 143.512L60.6074 142.84L59.0283 141.271L58.2012 140.225L57.2988 138.955L56.3213 137.162L55.7197 135.743L55.3438 134.622L55.043 133.501L54.7422 132.007L54.5166 130.214V126.927L54.8174 124.387L55.2686 122.071L55.7949 120.054L56.8477 116.842L58.126 113.779L59.7051 110.566L60.6826 108.848L61.2842 107.578L61.3594 107.279V106.458L61.0586 105.71L60.5322 105.038L60.457 104.814L61.0586 103.843L61.8105 102.498L62.1865 101.9L62.2617 101.676H62.4121V101.527L62.9385 101.602L63.6904 101.826H64.2168L65.0439 101.527L65.6455 101.079L66.5479 99.6592L67.6006 97.8662L68.5781 96.2227L69.3301 94.9526L70.0068 95.1021L71.8867 95.6997L74.5186 96.2974L74.5938 96.4468L74.6689 115.572L74.8945 116.319L75.4209 116.991L76.0977 117.365L76.3984 117.439H77.3008L78.2031 116.991L78.7295 116.319L79.0303 115.646L79.1055 114.601V96.4468L79.4062 96.2974L82.1885 95.7744L84.8955 94.8779L86.4746 94.1309L87.8281 93.3838L88.8809 92.6367L90.0088 91.8149L90.3096 91.5908L90.6104 91.6655L91.2119 92.1885L92.0391 92.9355L92.8662 93.6079L93.3926 94.1309L93.9941 94.6538L94.8213 95.4009L95.6484 96.0732L96.3252 96.7456L96.9268 97.2686L97.6787 97.9409L98.2803 98.4639L99.0322 99.1362L99.6338 99.6592L100.386 100.332L100.987 100.854L101.739 101.527L102.341 102.05L103.318 102.797L104.221 103.096L105.123 103.021L105.875 102.647L106.326 102.274L106.702 101.602L106.777 100.929L106.627 100.257L106.176 99.5098L105.875 99.2109V99.0615L105.574 98.9121L104.973 98.3145L104.146 97.6421L103.168 96.7456L102.566 96.2227L101.739 95.4756L101.138 94.9526L100.386 94.2803L99.7842 93.7573L98.957 93.0103L98.3555 92.4873L97.4531 91.6655L96.8516 91.1426L95.7988 90.2461L94.6709 89.2002L94.0693 88.6772L93.543 88.229L93.6934 87.7808L94.3701 86.7349L95.1973 85.3901L95.874 85.5396L98.8818 86.5854L105.875 89.0508L109.259 90.2461L113.019 91.5908L115.199 92.3379L115.876 92.562L116.703 92.6367L117.455 92.4126L118.132 91.9644L118.583 91.2173L118.733 90.769V90.0967L118.357 89.2002L117.981 88.752L116.929 88.229L113.771 87.1084L109.71 85.689L101.213 82.7007L97.2275 81.2812L96.8516 81.1318V80.5342L97.1523 79.1895L98.7314 79.1147L102.867 79.04L103.544 78.8906L104.296 78.3677L104.747 77.6953L104.897 77.2471V76.5747L104.521 75.6782L104.07 75.1553L103.318 74.7817L103.018 74.707L97.3027 74.6323L97.1523 74.1841L96.7764 72.0923L96.3252 70.4487L95.5732 68.4316L95.2725 67.6846L95.5732 67.3857L96.7012 66.7134L97.9795 65.8916L106.552 60.5127L108.356 59.3921L111.665 57.3003L113.47 56.1797L114.898 55.2832L116.703 54.1626L117.605 53.5649L118.282 52.9673L118.658 52.2202L118.733 51.4731L118.508 50.7261L118.057 50.0537L117.53 49.6802L116.778 49.4561H116.252L115.5 49.6802L114.447 50.2778L112.943 51.249L104.146 56.7773L102.717 57.6738L100.912 58.7944L99.2578 59.8403L93.543 63.4263L92.8662 63.8745L92.5654 63.7251L91.8887 62.9033L90.7607 61.7827L89.9336 61.1104L89.332 60.5874L89.4072 60.2886L92.5654 54.6855L92.8662 53.8638V53.1167L92.5654 52.3696L91.9639 51.6973L91.4375 51.249L91.5879 51.0249H91.7383L91.8135 50.7261L92.5654 49.3813L93.0166 48.5596L93.3926 48.0366L94.2197 48.186L94.5205 48.2607H95.0469L95.7988 48.0366L96.25 47.7378L96.8516 47.0654L98.1299 44.9736L98.8066 43.9277L100.01 42.1348L100.912 40.9395L102.416 38.9971L103.318 37.9512L104.296 36.9053L104.822 36.3076L106.101 35.1123L107.078 34.2158L107.905 33.5435L109.184 32.5723L110.312 31.8252L111.59 31.0781L112.492 30.5552L114.372 29.7334L116.402 29.061L118.207 28.6875L119.861 28.4634Z" fill="#FC7288"/>
<path d="M31.8828 28.4634H34.2139L35.5674 28.6128L37.2217 28.9116L39.1768 29.5093L40.3799 29.9575L42.5605 31.0034L44.3652 32.124L45.6436 33.0205L46.4707 33.6929L47.4482 34.5146L48.0498 35.0376L48.5762 35.5605L49.1777 36.0835L50.3809 37.2788L51.0576 38.1006L51.7344 38.8477L52.4111 39.6694L53.2383 40.7153L53.9902 41.7612L54.9678 43.106L55.7949 44.376L56.8477 46.0942L57.75 47.439L58.3516 47.9619L58.8779 48.186L59.2539 48.2607H59.8555L60.457 48.186L60.833 48.9331L61.585 50.2031L62.6377 52.0708L63.6152 53.8638L64.292 54.9844L64.7432 55.8062L65.8711 57.8979L66.623 59.168H66.999L66.8486 59.4668L65.4199 60.3633L64.668 61.0356L63.916 61.6333L63.3145 62.1562L62.9385 62.0815L61.8857 61.1851L61.1338 60.5874L60.1562 59.7656L59.3291 59.0933L58.3516 58.2715L57.5996 57.6738L56.6221 56.8521L55.7949 56.1797L55.1934 55.7314L54.4414 55.3579H53.2383L52.5615 55.6567L52.1104 56.0303L51.7344 56.7026L51.6592 57.0015V57.8979L51.96 58.645L52.6367 59.3921L53.4639 60.0645L54.4414 60.8862L55.2686 61.5586L56.2461 62.3804L56.998 62.978L58.0508 63.8745L58.8027 64.4722L59.6299 65.1445L60.1562 65.5928L60.2314 65.8916L59.6299 66.9375L59.1787 67.7593L58.7275 67.6846L40.3047 61.1104L34.665 59.0933L34.0635 58.9438H33.1611L32.2588 59.3921L31.7324 59.9897L31.5068 60.5874L31.4316 61.1851L31.582 61.8574L32.0332 62.6045L32.7852 63.1274L35.417 64.0986L39.0264 65.3687L43.0117 66.7881L50.9824 69.627L55.7949 71.3452L57.2236 71.8682L57.5996 72.0923L57.5244 72.6899L57.2236 74.1841L57.0732 74.2588L49.1777 74.3335L48.4258 74.5576L47.8242 75.0059L47.5234 75.3794L47.2979 75.8276L47.2227 76.1265V76.9482L47.6738 77.8447L48.3506 78.4424L49.1025 78.6665L57.0732 78.7412L57.2988 78.9653L57.75 81.356L58.2764 82.9995L58.4268 83.4478V83.8213L57.75 84.2695L56.1709 85.0913L55.4189 85.5396L54.3662 86.0625L52.6367 87.0337L51.7344 87.4819L50.0801 88.3784L48.125 89.4243L46.6963 90.2461L46.0947 90.769L45.7939 91.3667L45.7188 91.5908V92.562L46.0195 93.3091L46.4707 93.832L46.8467 94.0562L47.2979 94.2056H48.4258L49.4033 93.832L52.7119 92.0391L54.8174 90.9185L56.4717 90.022L59.9307 88.1543L60.457 87.8555L60.7578 87.9302L61.6602 88.9761L62.2617 89.7231L63.0889 90.6196L64.0664 91.5161L64.8936 92.1885L65.4199 92.6367L65.2695 93.0103L64.3672 94.5791L63.4648 96.0732L62.4873 97.7168L62.0361 98.5386L61.7354 99.2856V100.107L62.0361 100.854L62.4121 101.303L62.6377 101.527H62.4121V101.676H62.2617L62.1865 102.05L61.585 103.021L60.9082 104.216L60.5322 104.889L61.2842 106.009L61.4346 106.458V107.279L61.1338 108.101L59.8555 110.492L59.1035 111.911L58.126 113.928L56.8477 117.066L55.7949 120.278L55.2686 122.37L54.8174 124.91L54.5918 126.927V130.214L54.8926 132.456L55.2686 134.174L55.8701 135.967L56.6973 137.76L57.5244 139.179L58.502 140.524L59.4043 141.57L60.833 142.989L61.8105 143.736L63.0889 144.633L64.668 145.529L66.3975 146.351L68.4277 147.098L70.6084 147.696L72.5635 148.069L74.293 148.293L75.1953 148.368H78.5039L81.1357 148.069L83.6924 147.546L85.7227 146.949L87.8281 146.127L89.332 145.38L90.6104 144.633L91.5879 143.96L92.791 143.064L93.3926 142.466L93.9941 141.943L94.7461 141.122L95.7236 139.852L96.5508 138.582L97.4531 136.863L98.1299 135.145L98.5811 133.576L98.957 131.634L99.1074 130.364V127.002L98.8818 124.835L98.5059 122.744L98.0547 120.876L97.5283 119.008L96.7764 116.842L95.7236 114.302L94.5205 111.762L93.3926 109.595L92.4902 107.952L92.2646 107.205V106.607L92.4902 105.86L92.9414 105.262L93.4678 104.889L94.0693 104.665H94.8965L95.7236 104.963L96.3252 105.486L97.2275 106.906L98.0547 108.25L99.4082 110.268L100.311 111.538L100.987 112.434L101.739 113.405L102.566 114.376L103.243 115.198L104.146 116.169L106.025 118.037L106.627 118.56L107.604 119.382L109.108 120.502L110.236 121.25L112.793 122.594L114.372 123.267L116.252 123.864L117.605 124.163L119.561 124.462L122.644 124.537L123.396 124.761L124.072 125.358L124.599 126.33L124.448 127.525L123.997 128.272L123.471 128.72L122.794 128.944L122.418 129.019H119.26L117.831 128.87L116.102 128.571L114.372 128.123L112.417 127.45L110.537 126.628L108.808 125.732L107.003 124.611L105.574 123.565L104.521 122.744L103.544 121.922L103.018 121.474L103.469 124.312L103.694 126.404L103.77 128.87L103.694 130.812L103.394 133.203L102.867 135.444L102.266 137.312L101.438 139.254L100.386 141.196L99.5586 142.392L98.6562 143.587L97.9043 144.409L97.3779 145.006L96.3252 146.052L94.6709 147.397L93.167 148.443L91.3623 149.489L89.5576 150.385L87.6777 151.132L86.0986 151.655L84.0684 152.178L81.7373 152.626L79.1055 153H74.5186L70.6836 152.402L68.3525 151.879L66.3975 151.282L64.292 150.46L61.8857 149.265L60.0811 148.144L59.1787 147.472L58.2012 146.725L57.2988 145.903L56.1709 144.857L55.6445 144.259L54.9678 143.512L53.9902 142.167L53.2383 141.047L52.2607 139.254L51.4336 137.312L50.7568 135.22L50.2305 132.68L50.0049 130.663L49.9297 129.617V127.45L50.0801 125.433L50.4561 122.818L50.7568 121.474L49.9297 122.146L48.9521 122.968L47.5234 124.014L45.7188 125.209L44.1396 126.105L43.0117 126.703L40.8311 127.6L39.252 128.123L37.4473 128.571L35.6426 128.87L34.2139 129.019H31.2061L29.3262 128.795L27.4463 128.421L25.8672 127.973L24.2129 127.375L22.709 126.703L21.1299 125.881L19.9268 125.134L18.498 124.163L17.2197 123.117L16.3926 122.445L15.6406 121.698L15.0391 121.175L14.0615 120.129L13.3848 119.307L12.6328 118.411L11.7305 117.215L10.6025 115.497L9.7002 113.928L8.94824 112.509L7.9707 110.268L7.06836 107.578L6.54199 105.486L6.16602 103.245L5.94043 100.556V99.4351L6.01562 97.7168L6.31641 95.4009L6.76758 93.3838L7.59473 90.9185L8.49707 88.9761L9.17383 87.7808L9.92578 86.5854L10.6777 85.6143L11.2793 84.8672L12.1816 83.896L12.8584 83.1489L14.3623 81.8042L15.791 80.7583L16.9189 80.0112L18.4229 79.1147L20.4531 78.0688L22.6338 77.1724L24.3633 76.5747H24.5137V76.4253L23.7617 76.2012L21.4307 75.3047L19.1748 74.2588L17.2949 73.2129L15.4902 72.0176L13.8359 70.6729L12.9336 69.8511L11.7305 68.6558L11.0537 67.834L10.1514 66.7134L9.24902 65.2939L8.49707 63.9492L7.89551 62.7539L7.06836 60.5874L6.54199 58.645L6.24121 57.1509L5.94043 54.3867V52.2949L6.09082 50.3525L6.4668 47.8872L7.21875 44.8989L7.9707 42.8071L8.42188 41.6865L8.87305 41.0142L9.32422 40.6406L10.001 40.3418H11.1289L11.5801 40.4165L12.2568 39.1465L12.9336 38.1006L12.7832 37.7271L12.4072 37.1294L12.2568 36.6812V35.9341L12.6328 34.9629L13.46 33.917L13.9111 33.394L14.5879 32.9458L15.0391 32.7964H15.9414L16.6182 33.0205L17.0693 33.0952L18.3477 31.8252L19.1748 31.2275L19.4756 31.377L20.1523 31.8999L20.9043 32.124H21.4307L22.1826 31.8999L23.6865 31.0781L25.2656 30.1816L27.1455 29.4346L28.6494 28.9863L30.5293 28.6128L31.8828 28.4634Z" fill="#FC4463"/>
<path d="M76.3984 36.2329H77.376L78.1279 36.5317L78.5791 36.9053L78.9551 37.5029L79.1055 37.8765L79.1807 38.3247L79.2559 56.4785L81.1357 56.9268L82.4893 57.2256L84.9707 58.0474L85.4219 58.1221L86.4746 56.1797L87.377 54.6108L88.5049 52.5938L89.1064 51.8467L89.7832 51.3984L90.3096 51.249H91.0615L91.7383 51.4731L92.4902 52.1455L92.8662 52.8926L92.9414 53.1167V53.8638L92.4902 54.9844L91.8135 56.1797L90.7607 58.0474L89.7832 59.7656L89.4072 60.3633L89.4824 60.6621L90.5352 61.5586L91.2871 62.231L92.0391 62.978L92.6406 63.7251L92.8662 63.7998L94.1445 62.978L95.7988 61.9321L97.3779 60.9609L99.1074 59.8403L100.461 59.0186L102.115 57.9727L112.342 51.5479L115.199 49.7549L115.951 49.4561L116.252 49.3813H116.778L117.53 49.6055L118.132 50.0537L118.583 50.7261L118.809 51.4731L118.733 52.2202L118.357 52.9673L117.831 53.4902L116.929 54.0879L115.124 55.2085L113.47 56.2544L111.665 57.375L110.011 58.4209L107.153 60.2139L105.349 61.3345L103.694 62.3804L96.3252 67.0122L95.3477 67.6099L95.5732 68.2822L96.3252 70.2246L96.7012 71.4946L97.1523 73.6611L97.3027 74.5576L103.018 74.6323L103.845 74.9312L104.371 75.3794L104.822 76.1265L104.973 76.5747V77.2471L104.672 77.9941L104.146 78.5918L103.544 78.9653L102.867 79.1147L98.7314 79.1895H97.1523L96.8516 81.1318L97.6035 81.356L102.115 82.9248L116.553 88.0049L117.756 88.5278L118.282 88.9761L118.733 89.8726L118.809 90.0967V90.769L118.508 91.5161L118.057 92.1138L117.455 92.4873L116.703 92.7114L115.876 92.6367L113.47 91.8149L110.988 90.9185L108.808 90.1714L97.1523 86.0625L95.4229 85.4648H95.1973L93.9941 87.4819L93.6182 88.0796L93.7686 88.3784L94.3701 88.9014L95.1973 89.6484L95.7988 90.1714L96.626 90.9185L97.2275 91.4414L98.7314 92.7861L99.7842 93.6826L100.912 94.7285L101.514 95.2515L102.566 96.1479L103.619 97.1191L104.221 97.6421L105.273 98.5386L105.875 99.0615L106.552 99.958L106.777 100.481L106.853 101.079L106.702 101.826L106.176 102.498L105.499 102.946L105.123 103.096L104.221 103.17L103.318 102.872L102.341 102.125L101.213 101.079L100.611 100.556L99.5586 99.6592L98.5059 98.688L97.9043 98.165L97.1523 97.4927L96.5508 96.9697L95.7988 96.2974L94.9717 95.5503L94.1445 94.8779L93.543 94.2803L92.9414 93.7573L92.1895 93.085L91.5879 92.562L90.8359 91.8896L90.5352 91.6655L90.1592 91.7402L89.6328 92.1885L88.5801 92.9355L87.4521 93.6826L85.2715 94.8032L82.4893 95.7744L79.9326 96.2974L79.1807 96.4468V115.124L79.0303 115.871L78.6543 116.543L78.1279 117.141L77.3008 117.514H76.3984L75.6465 117.215L75.1201 116.767L74.7441 116.095L74.5938 115.572L74.5186 96.2974L73.8418 96.2227L71.6611 95.6997L69.3301 94.9526L69.1797 95.3262L68.5029 96.5215L67.6006 98.0156L66.3223 100.182L65.5703 101.228L64.8936 101.676L64.2168 101.9H63.6904L62.7881 101.602L62.1865 101.153L61.8105 100.556L61.6602 100.107V99.2856L62.0361 98.3145L62.9385 96.8203L63.6904 95.5503L64.8184 93.6826L65.3447 92.7861L65.1943 92.4873L64.3672 91.8149L63.2393 90.8438L62.4121 90.022L61.0586 88.3784L60.6826 87.9302L60.3818 88.0049L58.3516 89.0508L57.1484 89.7231L54.8926 90.9185L53.2383 91.8149L51.2832 92.8608L49.9297 93.6079L48.7266 94.2056L48.4258 94.2803H47.2979L46.6211 93.9814L46.0947 93.5332L45.7188 92.8608L45.6436 92.562V91.5908L45.9443 90.9185L46.4707 90.3208L47.5986 89.6484L49.7041 88.5278L51.5088 87.5566L52.4111 87.0337L53.4639 86.5107L55.1934 85.5396L56.0957 85.0913L57.2988 84.4189L58.3516 83.8213L58.2764 83.2236L57.8252 81.8789L57.4492 80.2354L57.2236 78.9653L57.0732 78.8159L49.1025 78.7412L48.3506 78.5171L47.5986 77.8447L47.1475 76.9482V76.1265L47.373 75.5288L47.6738 75.0806L48.2754 74.5576L48.8018 74.3335L49.1777 74.2588L57.2236 74.1841L57.2988 73.5864L57.5244 72.3911V72.0923L56.4717 71.644L54.291 70.897L46.3203 68.0581L39.4023 65.5928L35.6426 64.248L33.1611 63.3516L32.4092 62.978L31.958 62.6045L31.5068 61.8574L31.3564 60.9609L31.582 60.1392L32.0332 59.5415L32.6348 59.0933L33.1611 58.8691H34.0635L35.5674 59.3174L37.8232 60.1392L45.7939 62.978L50.6064 64.6963L55.1934 66.3398L57.4492 67.1616L59.1787 67.7593L59.3291 67.311L60.0059 66.1157L60.1562 65.7422L59.7803 65.3687L59.0283 64.6963L57.9756 63.8745L56.8477 62.9033L55.6445 61.9321L54.5918 61.0356L53.5391 60.2139L52.7871 59.5415L52.1855 59.0186L51.7344 58.3462L51.584 57.8979V57.0015L51.8848 56.2544L52.2607 55.8062L52.7871 55.4326L53.2383 55.2832H54.4414L55.3438 55.7314L56.3965 56.6279L57.2236 57.3003L58.2012 58.1221L59.0283 58.7944L60.0059 59.6162L60.833 60.2886L62.1113 61.3345L62.9385 62.0068L63.3145 62.0815L64.1416 61.3345L65.6455 60.1392L67.2246 59.168L68.5781 58.4209L70.458 57.6738L71.5859 57.3003L74.1426 56.7026L74.5186 56.5532L74.5938 38.3994L74.7441 37.7271L75.1953 36.98L75.9473 36.3823L76.3984 36.2329Z" fill="#010102"/>
<path d="M31.8828 28.4634H34.2139L35.5674 28.6128L37.2217 28.9116L39.1768 29.5093L40.3799 29.9575L42.5605 31.0034L44.3652 32.124L45.6436 33.0205L46.4707 33.6929L47.4482 34.5146L48.0498 35.0376L48.5762 35.5605L49.1777 36.0835L50.3809 37.2788L51.0576 38.1006L51.7344 38.8477L52.4111 39.6694L53.2383 40.7153L53.9902 41.7612L54.9678 43.106L55.7949 44.376L56.8477 46.0942L57.75 47.439L58.3516 47.9619L58.8779 48.186L59.2539 48.2607H59.8555L60.457 48.186L60.833 48.9331L61.585 50.2031L62.6377 52.0708L63.6152 53.8638L64.292 54.9844L64.7432 55.8062L65.8711 57.8979L66.623 59.168H66.999L66.8486 59.4668L65.4199 60.3633L64.668 61.0356L63.916 61.6333L63.3145 62.1562L62.9385 62.0815L61.8857 61.1851L61.1338 60.5874L60.1562 59.7656L59.3291 59.0933L58.3516 58.2715L57.5996 57.6738L56.6221 56.8521L55.7949 56.1797L55.1934 55.7314L54.4414 55.3579H53.2383L52.5615 55.6567L52.1104 56.0303L51.7344 56.7026L51.6592 57.0015V57.8979L51.96 58.645L52.6367 59.3921L53.4639 60.0645L54.4414 60.8862L55.2686 61.5586L56.2461 62.3804L56.998 62.978L58.0508 63.8745L58.8027 64.4722L59.6299 65.1445L60.1562 65.5928L60.2314 65.8916L59.6299 66.9375L59.1787 67.7593L58.7275 67.6846L40.3047 61.1104L34.665 59.0933L34.0635 58.9438H33.1611L32.2588 59.3921L31.7324 59.9897L31.5068 60.5874L31.4316 61.1851L31.582 61.8574L32.0332 62.6045L32.7852 63.1274L35.417 64.0986L39.0264 65.3687L43.0117 66.7881L50.9824 69.627L55.7949 71.3452L57.2236 71.8682L57.5996 72.0923L57.5244 72.6899L57.2236 74.1841L57.0732 74.2588L49.1777 74.3335L48.4258 74.5576L47.8242 75.0059L47.5234 75.3794L47.2979 75.8276L47.0723 76.8735L46.9219 76.5747L44.8164 76.6494L43.9141 76.5747L43.6133 75.8276L43.3125 75.23L43.0117 74.8564L42.4102 74.4829L41.8086 74.3335L40.6807 74.2588L36.9961 74.1094L34.5898 73.8853L32.1836 73.5864L29.4766 73.0635L27.5967 72.6152L25.1152 71.8682L23.5361 71.2705L21.4307 70.2993L20.1523 69.627L18.1221 68.2822L17.3701 67.6846L16.543 66.9375L15.9414 66.4146L15.1143 65.5928L14.5127 64.8457L13.3848 63.3516L12.4824 61.7827L12.0312 60.8115L11.3545 59.0186L10.9785 57.5991L10.6777 56.0303L10.5273 54.5361V51.8467L10.6777 50.4272L10.9785 48.5596L11.5801 46.2437L12.5576 43.4795L12.708 42.8071V42.2095L12.4824 41.5371L12.1816 41.0889L11.6553 40.6406L11.4297 40.4912L11.6553 40.2671L12.2568 39.1465L12.9336 38.1006L12.7832 37.7271L12.4072 37.1294L12.2568 36.6812V35.9341L12.6328 34.9629L13.46 33.917L13.9111 33.394L14.5879 32.9458L15.0391 32.7964H15.9414L16.6182 33.0205L17.0693 33.0952L18.3477 31.8252L19.1748 31.2275L19.4756 31.377L20.1523 31.8999L20.9043 32.124H21.4307L22.1826 31.8999L23.6865 31.0781L25.2656 30.1816L27.1455 29.4346L28.6494 28.9863L30.5293 28.6128L31.8828 28.4634Z" fill="#FC7288"/>
<path d="M119.861 28.4634H122.343L124.223 28.6875L125.877 29.061L127.531 29.584L129.11 30.2563L131.065 31.3022L132.72 32.4229L133.923 33.394L134.675 34.0664L135.652 34.9629L136.855 36.2329L137.833 37.4282L138.811 38.7729L139.788 40.3418L140.69 41.9854L141.367 43.4048L141.818 44.5254L142.57 46.7666L143.097 49.0078L143.397 51.0996L143.473 51.9961V54.6108L143.247 56.5532L142.796 58.5703L142.194 60.3633L141.142 62.5298L140.239 63.9492L139.187 65.2939L138.059 66.4893L137.532 67.0122L136.705 67.6846L135.427 68.6558L134.6 69.1787L132.645 70.2993L130.539 71.2705L128.734 71.9429L126.479 72.6152L124.223 73.1382L122.268 73.5117L120.162 73.8105L117.154 74.1094L115.951 74.1841L113.244 74.2588L111.74 74.4082L110.988 74.8564L110.537 75.4541L110.161 76.5H106.176L106.025 76.4253H105.273L104.973 76.5V76.3506H104.822L104.446 75.6035L104.07 75.1553L103.318 74.7817L103.018 74.707L97.3027 74.6323L97.1523 74.1841L96.7764 72.0923L96.3252 70.4487L95.5732 68.4316L95.2725 67.6846L95.5732 67.3857L96.7012 66.7134L97.9795 65.8916L106.552 60.5127L108.356 59.3921L111.665 57.3003L113.47 56.1797L114.898 55.2832L116.703 54.1626L117.605 53.5649L118.282 52.9673L118.658 52.2202L118.733 51.4731L118.508 50.7261L118.057 50.0537L117.53 49.6802L116.778 49.4561H116.252L115.5 49.6802L114.447 50.2778L112.943 51.249L104.146 56.7773L102.717 57.6738L100.912 58.7944L99.2578 59.8403L93.543 63.4263L92.8662 63.8745L92.5654 63.7251L91.8887 62.9033L90.7607 61.7827L89.9336 61.1104L89.332 60.5874L89.4072 60.2886L92.5654 54.6855L92.8662 53.8638V53.1167L92.5654 52.3696L91.9639 51.6973L91.4375 51.249L91.5879 51.0249H91.7383L91.8135 50.7261L92.5654 49.3813L93.0166 48.5596L93.3926 48.0366L94.2197 48.186L94.5205 48.2607H95.0469L95.7988 48.0366L96.25 47.7378L96.8516 47.0654L98.1299 44.9736L98.8066 43.9277L100.01 42.1348L100.912 40.9395L102.416 38.9971L103.318 37.9512L104.296 36.9053L104.822 36.3076L106.101 35.1123L107.078 34.2158L107.905 33.5435L109.184 32.5723L110.312 31.8252L111.59 31.0781L112.492 30.5552L114.372 29.7334L116.402 29.061L118.207 28.6875L119.861 28.4634Z" fill="#FC7288"/>
<path d="M110.161 76.2012H110.236L110.387 77.1724L110.688 77.77L110.988 78.1436L111.59 78.5171L112.718 78.7412L117.831 78.9653L120.463 79.2642L123.922 79.7871L126.253 80.3101L128.734 81.0571L130.915 81.8789L133.096 82.9248L134.976 84.0454L136.254 84.9419L137.307 85.8384L138.209 86.6602L138.961 87.4072L139.638 88.229L140.465 89.3496L141.217 90.6196L141.818 91.8149L142.42 93.3091L142.946 95.1021L143.247 96.5962L143.397 97.8662L143.473 99.1362V100.78L143.322 102.498L143.021 104.291L142.57 106.159L142.194 107.354L141.743 108.699L141.066 110.193L140.089 112.061L139.111 113.779L138.585 114.526L137.983 115.348L137.758 115.721H137.607L137.457 116.02L136.78 116.842L135.652 118.037L134.675 119.008L134.073 119.531L132.945 120.428L131.968 121.1L130.915 121.772L130.013 122.445L129.712 122.818L129.411 123.565V124.238L129.562 124.91L128.584 125.284L127.456 125.732L124.899 126.404L124.523 126.33L123.997 125.358L123.396 124.835L122.644 124.611L119.561 124.537L116.778 124.088L114.823 123.491L113.62 123.042L111.891 122.221L110.236 121.324L108.808 120.353L107.83 119.606L107.003 118.934L106.176 118.187L105.574 117.664L103.469 115.572L102.792 114.75L101.814 113.629L100.837 112.359L99.7842 110.94L98.5811 109.147L97.9043 108.101L96.9268 106.532L96.4004 105.71L95.874 105.113L95.1973 104.814L94.8965 104.739H94.0693L93.3174 104.963L93.4678 104.665L93.2422 104.59L92.3398 103.17L91.7383 102.125L90.46 100.033L89.1816 97.8662L88.4297 96.6709L88.0537 95.9985L87.0762 94.5044L86.9258 94.355L87.001 93.9814L86.8506 93.9067L88.0537 93.2344L89.4824 92.1885L90.084 91.7402L90.3096 91.5908L90.6104 91.6655L91.2119 92.1885L92.0391 92.9355L92.8662 93.6079L93.3926 94.1309L93.9941 94.6538L94.8213 95.4009L95.6484 96.0732L96.3252 96.7456L96.9268 97.2686L97.6787 97.9409L98.2803 98.4639L99.0322 99.1362L99.6338 99.6592L100.386 100.332L100.987 100.854L101.739 101.527L102.341 102.05L103.318 102.797L104.221 103.096L105.123 103.021L105.875 102.647L106.326 102.274L106.702 101.602L106.777 100.929L106.627 100.257L106.176 99.5098L105.875 99.2109V99.0615L105.574 98.9121L104.973 98.3145L104.146 97.6421L103.168 96.7456L102.566 96.2227L101.739 95.4756L101.138 94.9526L100.386 94.2803L99.7842 93.7573L98.957 93.0103L98.3555 92.4873L97.4531 91.6655L96.8516 91.1426L95.7988 90.2461L94.6709 89.2002L94.0693 88.6772L93.543 88.229L93.6934 87.7808L94.3701 86.7349L95.1973 85.3901L95.874 85.5396L98.8818 86.5854L105.875 89.0508L109.259 90.2461L113.019 91.5908L115.199 92.3379L115.876 92.562L116.703 92.6367L117.455 92.4126L118.132 91.9644L118.583 91.2173L118.733 90.769V90.0967L118.357 89.2002L117.981 88.752L116.929 88.229L113.771 87.1084L109.71 85.689L101.213 82.7007L97.2275 81.2812L96.8516 81.1318V80.5342L97.1523 79.1895L98.7314 79.1147L102.867 79.04L103.544 78.8906L104.296 78.3677L104.747 77.6953L104.897 77.2471V76.3506L104.973 76.5L105.273 76.3506H106.101L106.401 76.4253H110.011L110.161 76.5V76.2012Z" fill="#FC4463"/>
<path d="M74.6689 0H79.6318L82.6396 0.448242L85.1963 0.971191L87.2266 1.56885L89.7832 2.54004L92.0391 3.66064L93.8438 4.78125L95.2725 5.82715L96.0996 6.49951L97.0771 7.396L97.4531 7.69482L97.9795 8.29248L98.8066 9.18896L99.7842 10.459L100.536 11.5796L101.438 13.1484L102.19 14.7173L102.867 16.5103L103.394 18.3779L103.77 20.3203L103.995 22.2627L104.07 23.8315V24.8774L103.995 26.7451L103.694 29.2852L103.394 30.9287L103.318 31.4517L104.146 30.7793L105.123 29.9575L106.025 29.2852L107.304 28.3887L108.958 27.3428L110.913 26.2969L113.019 25.4004L115.35 24.6533L117.53 24.2051L119.185 23.981L120.237 23.9062H122.042L123.847 24.0557L125.727 24.3545L127.531 24.8027L129.486 25.4751L131.216 26.2222L132.945 27.1187L134.6 28.1646L136.028 29.2104L137.006 30.0322L137.833 30.7046L139.638 32.4976L140.164 33.0952L141.066 34.1411L142.119 35.5605L142.796 36.5317L143.773 38.1006L144.676 39.7441L145.503 41.4624L146.33 43.5542L147.007 45.646L147.533 47.8872L147.834 49.6802L147.984 51.249L148.06 52.6685V53.5649L147.909 55.9556L147.533 58.3462L147.157 59.8403L146.405 62.0815L145.503 64.0239L144.525 65.7422L143.773 66.7881L143.097 67.6846L142.42 68.4316L141.894 69.0293L141.292 69.7017H141.142V69.8511L140.54 70.374L139.788 71.0464L138.284 72.167L136.931 73.0635L135.502 73.8853L133.772 74.7817L131.517 75.7529L129.562 76.4253H129.411V76.5747L130.088 76.7241L132.795 77.77L134.675 78.6665L136.63 79.7124L138.435 80.9077L139.187 81.5054L140.014 82.1777L140.916 82.9995L141.292 83.2983L141.668 83.6719L142.57 84.6431L143.397 85.689L144.375 87.0337L145.428 88.8267L146.18 90.3955L146.781 91.8896L147.308 93.6826L147.684 95.4009L147.909 97.0444L148.06 99.4351V100.481L147.909 102.647L147.533 105.113L147.082 106.98L146.48 108.998L145.804 110.791L144.977 112.658L144.375 113.779L143.924 114.601L143.322 115.646L142.27 117.215L141.292 118.56L140.39 119.606L139.713 120.428L137.908 122.221L137.081 122.893L136.404 123.491L135.502 124.163L134.299 124.985L132.87 125.881L132.118 126.18L131.517 126.255L130.614 126.031L130.013 125.583L129.562 124.985L129.336 124.238V123.565L129.637 122.818L130.163 122.221L131.141 121.548L132.193 120.876L133.396 119.979L134.148 119.382L135.352 118.261L136.254 117.365L136.78 116.767L137.532 115.871L137.607 115.721H137.758L137.908 115.348L138.585 114.451L138.886 114.003L139.638 112.733L140.766 110.641L141.518 109.072L142.044 107.578L142.42 106.458L142.871 104.665L143.172 103.021L143.322 101.826L143.397 100.78V99.1362L143.247 97.1938L143.021 95.7744L142.57 93.9814L142.044 92.4873L141.367 90.9932L140.54 89.5737L139.938 88.752L139.412 88.0796L138.585 87.1084L137.607 86.1372L135.953 84.7925L134.75 83.9707L133.321 83.1489L131.592 82.2524L129.562 81.4307L127.08 80.6089L124.674 80.0112L122.042 79.563L118.658 79.1147L116.252 78.9653L112.718 78.8159L111.59 78.5918L110.838 78.0688L110.387 77.3965L110.236 76.9482V76.1265L110.537 75.3047L110.988 74.7817L111.74 74.3335L113.244 74.1841L115.951 74.1094L118.658 73.8853L120.764 73.6611L123.471 73.2129L125.576 72.7646L127.531 72.2417L129.562 71.5693L131.366 70.8223L132.945 70.0752L134.75 69.0293L136.028 68.1328L137.081 67.311L138.209 66.2651L139.262 65.1445L140.314 63.7251L141.217 62.231L142.119 60.3633L142.721 58.5703L143.172 56.5532L143.397 54.6108V51.9961L143.172 49.9043L142.796 47.9619L142.27 46.0195L141.518 43.9277L140.69 42.1348L139.863 40.5659L138.886 38.9971L137.908 37.6523L137.081 36.6064L135.427 34.8135L134.224 33.6929L132.945 32.647L130.915 31.3022L129.11 30.3311L127.531 29.6587L125.651 29.061L123.696 28.6875L122.343 28.5381H119.861L117.756 28.8369L115.876 29.2852L113.996 29.9575L112.793 30.4805L111.063 31.4517L109.71 32.2734L108.507 33.1699L107.454 33.9917L106.627 34.7388L106.025 35.2617L105.424 35.8594L104.822 36.3823L103.92 37.3535L103.394 37.9512L102.642 38.7729L101.965 39.6694L100.912 41.0142L99.9346 42.3589L98.5811 44.376L97.3027 46.4678L96.626 47.439L96.0996 47.9619L95.4229 48.2607L95.0469 48.3354H94.5205L93.7686 48.1113L93.167 47.6631L92.7158 46.9907L92.5654 46.5425V45.646L92.8662 44.8242L93.8438 43.0312L94.7461 41.3877L95.5732 39.6694L96.4004 37.8018L97.3027 35.4858L98.1299 32.9458L98.8066 30.2563L99.2578 27.4922L99.4082 25.7739V23.2339L99.1826 21.0674L98.7314 18.9009L97.9795 16.6597L97.002 14.6426L95.9492 13.0737L95.1973 12.1025L94.3701 11.2061L93.3926 10.2349L92.5654 9.5625L91.3623 8.66602L89.4824 7.54541L87.6025 6.64893L85.7979 5.97656L83.9932 5.45361L82.6396 5.15479L80.835 4.85596L78.2783 4.63184H75.7969L72.7891 4.93066L70.5332 5.37891L68.6533 5.90186L66.999 6.49951L65.1943 7.32129L64.2168 7.84424L62.7881 8.74072L61.8105 9.48779L61.0586 10.0854L60.3818 10.7578L59.8555 11.2061L59.3291 11.8037L58.502 12.8496L57.5996 14.1943L56.6973 15.8379L55.9453 17.7056L55.4941 19.1997L55.1182 21.0674L54.8926 23.0098V25.6992L55.1934 28.4634L55.5693 30.5552L56.1709 32.9458L57.0732 35.71L58.2012 38.4741L59.1787 40.5659L59.7803 41.7612L60.9082 43.9277L61.3594 44.6748L61.7354 45.646V46.6172L61.3594 47.3643L60.7578 47.9619L59.8555 48.3354H59.2539L58.502 48.1113L58.0508 47.8125L57.4492 47.1401L56.5469 45.7207L55.4941 44.0024L54.667 42.8071L53.6895 41.4624L52.8623 40.3418L51.8848 39.1465L50.9072 38.0259L50.2305 37.2041L48.7266 35.71L48.125 35.187L47.5986 34.6641L46.7715 33.9917L45.5684 33.0205L43.7637 31.8252L42.2598 30.9287L40.2295 29.9575L38.7256 29.4346L36.9209 28.9116L35.1162 28.6128L34.2139 28.5381H31.8828L30.0781 28.7622L28.0479 29.2104L26.5439 29.7334L24.9648 30.4058L23.1602 31.4517L21.957 32.0493L21.4307 32.1987H20.9043L20.1523 31.9746L19.3252 31.3022L18.9492 30.4058V29.4346L19.4004 28.5381L20.0771 27.9404L21.2803 27.1934L22.4834 26.521L24.3633 25.6245L26.6943 24.8027L28.875 24.2798L30.9053 23.981L32.1836 23.9062H33.9883L35.793 24.0557L37.9736 24.4292L40.3047 25.1016L41.8086 25.6245L44.5156 26.8945L46.2451 27.9404L47.373 28.6875L48.4258 29.4346L49.4033 30.2563L50.1553 30.854L50.9824 31.5264L50.832 30.6299L50.4561 28.1646L50.2305 25.4751V23.5327L50.3809 21.4409L50.6816 19.4985L51.1328 17.4814L51.8848 15.3149L52.5615 13.7461L53.3135 12.3267L54.0654 11.1313L55.043 9.78662L55.7197 8.96484L56.8477 7.76953L57.75 6.87305L58.3516 6.3501L59.7051 5.3042L60.457 4.78125L62.0361 3.81006L63.7656 2.91357L65.0439 2.31592L67.0742 1.56885L69.1045 0.971191L71.9619 0.373535L74.6689 0Z" fill="#010102"/>
<path d="M10.001 40.3418H11.1289L11.8809 40.7153L12.4072 41.2383L12.708 41.8359L12.7832 42.2095V42.8071L12.4824 43.9277L11.5801 46.4678L10.9785 48.9331L10.6777 50.9502L10.6025 51.8467V54.5361L10.8281 56.4785L11.2793 58.5703L11.9561 60.438L12.4824 61.6333L13.3096 63.1274L14.3623 64.5469L15.415 65.8169L16.3926 66.7881L16.9941 67.311L17.9717 68.1328L19.4756 69.104L20.8291 69.9258L22.8594 70.897L24.2881 71.4946L26.7695 72.3164L28.7998 72.8394L31.3564 73.3623L33.3115 73.6611L36.0186 73.96L38.4248 74.1094L40.6807 74.1841L41.8086 74.2588L42.5605 74.4829L43.1621 74.9312L43.6133 75.6035L43.7637 76.1265V76.9482L43.5381 77.5459L42.8613 78.293L42.2598 78.5918L41.583 78.7412L40.6055 78.8159L37.0713 78.9653L35.041 79.1147L32.5596 79.4136L30.3037 79.7871L28.2734 80.2354L25.8672 80.9077L23.9873 81.5801L22.4082 82.2524L20.8291 82.9995L19.4756 83.8213L18.3477 84.5684L17.3701 85.3154L16.7686 85.8384L16.0166 86.5107L15.3398 87.1831L14.8135 87.7808L14.1367 88.6772L13.6104 89.4243L12.708 90.9185L11.8809 92.7114L11.2793 94.5044L10.9033 96.1479L10.6777 97.7168L10.6025 98.7627V100.78L10.7529 102.498L11.0537 104.291L11.6553 106.682L12.2568 108.4L13.084 110.342L13.8359 111.762L14.2871 112.658L15.1143 113.928L15.8662 114.974L16.543 115.871L17.2197 116.692L18.1221 117.664L19.7012 119.232L20.7539 120.054L21.5059 120.652L23.085 121.698L24.8896 122.669L26.9199 123.491L28.7246 124.014L30.2285 124.312L31.4316 124.462H34.1387L36.0938 124.163L37.9736 123.715L39.4775 123.192L40.7559 122.669L41.959 122.071L43.0117 121.474L44.2148 120.727L45.5684 119.755L46.3955 119.083L47.373 118.261L48.3506 117.365L49.9297 115.796L50.4561 115.198L51.1328 114.451L51.96 113.405L52.8623 112.285L53.8398 110.94L54.667 109.745L55.2686 108.848L57.2236 105.71L57.9004 105.038L58.502 104.739L58.7275 104.665H59.6299L60.3818 104.963L60.9082 105.412L61.3594 106.159L61.4346 106.458V107.279L61.1338 108.101L59.8555 110.492L59.1035 111.911L58.126 113.928L56.8477 117.066L55.7949 120.278L55.2686 122.37L54.8174 124.91L54.5918 126.927V130.214L54.8926 132.456L55.2686 134.174L55.8701 135.967L56.6973 137.76L57.5244 139.179L58.502 140.524L59.4043 141.57L60.833 142.989L61.8105 143.736L63.0889 144.633L64.668 145.529L66.3975 146.351L68.4277 147.098L70.6084 147.696L72.5635 148.069L74.293 148.293L75.1953 148.368H78.5039L81.1357 148.069L83.6924 147.546L85.7227 146.949L87.8281 146.127L89.332 145.38L90.6104 144.633L91.5879 143.96L92.791 143.064L93.3926 142.466L93.9941 141.943L94.7461 141.122L95.7236 139.852L96.5508 138.582L97.4531 136.863L98.1299 135.145L98.5811 133.576L98.957 131.634L99.1074 130.364V127.002L98.8818 124.835L98.5059 122.744L98.0547 120.876L97.5283 119.008L96.7764 116.842L95.7236 114.302L94.5205 111.762L93.3926 109.595L92.4902 107.952L92.2646 107.205V106.607L92.4902 105.86L92.9414 105.262L93.4678 104.889L94.0693 104.665H94.8965L95.7236 104.963L96.3252 105.486L97.2275 106.906L98.0547 108.25L99.4082 110.268L100.311 111.538L100.987 112.434L101.739 113.405L102.566 114.376L103.243 115.198L104.146 116.169L106.025 118.037L106.627 118.56L107.604 119.382L109.108 120.502L110.236 121.25L112.793 122.594L114.372 123.267L116.252 123.864L117.605 124.163L119.561 124.462L122.644 124.537L123.396 124.761L124.072 125.358L124.599 126.33L124.448 127.525L123.997 128.272L123.471 128.72L122.794 128.944L122.418 129.019H119.26L117.831 128.87L116.102 128.571L114.372 128.123L112.417 127.45L110.537 126.628L108.808 125.732L107.003 124.611L105.574 123.565L104.521 122.744L103.544 121.922L103.018 121.474L103.469 124.312L103.694 126.404L103.77 128.87L103.694 130.812L103.394 133.203L102.867 135.444L102.266 137.312L101.438 139.254L100.386 141.196L99.5586 142.392L98.6562 143.587L97.9043 144.409L97.3779 145.006L96.3252 146.052L94.6709 147.397L93.167 148.443L91.3623 149.489L89.5576 150.385L87.6777 151.132L86.0986 151.655L84.0684 152.178L81.7373 152.626L79.1055 153H74.5186L70.6836 152.402L68.3525 151.879L66.3975 151.282L64.292 150.46L61.8857 149.265L60.0811 148.144L59.1787 147.472L58.2012 146.725L57.2988 145.903L56.1709 144.857L55.6445 144.259L54.9678 143.512L53.9902 142.167L53.2383 141.047L52.2607 139.254L51.4336 137.312L50.7568 135.22L50.2305 132.68L50.0049 130.663L49.9297 129.617V127.45L50.0801 125.433L50.4561 122.818L50.7568 121.474L49.9297 122.146L48.9521 122.968L47.5234 124.014L45.7188 125.209L44.1396 126.105L43.0117 126.703L40.8311 127.6L39.252 128.123L37.4473 128.571L35.6426 128.87L34.2139 129.019H31.2061L29.3262 128.795L27.4463 128.421L25.8672 127.973L24.2129 127.375L22.709 126.703L21.1299 125.881L19.9268 125.134L18.498 124.163L17.2197 123.117L16.3926 122.445L15.6406 121.698L15.0391 121.175L14.0615 120.129L13.3848 119.307L12.6328 118.411L11.7305 117.215L10.6025 115.497L9.7002 113.928L8.94824 112.509L7.9707 110.268L7.06836 107.578L6.54199 105.486L6.16602 103.245L5.94043 100.556V99.4351L6.01562 97.7168L6.31641 95.4009L6.76758 93.3838L7.59473 90.9185L8.49707 88.9761L9.17383 87.7808L9.92578 86.5854L10.6777 85.6143L11.2793 84.8672L12.1816 83.896L12.8584 83.1489L14.3623 81.8042L15.791 80.7583L16.9189 80.0112L18.4229 79.1147L20.4531 78.0688L22.6338 77.1724L24.3633 76.5747H24.5137V76.4253L23.7617 76.2012L21.4307 75.3047L19.1748 74.2588L17.2949 73.2129L15.4902 72.0176L13.8359 70.6729L12.9336 69.8511L11.7305 68.6558L11.0537 67.834L10.1514 66.7134L9.24902 65.2939L8.49707 63.9492L7.89551 62.7539L7.06836 60.5874L6.54199 58.645L6.24121 57.1509L5.94043 54.3867V52.2949L6.09082 50.3525L6.4668 47.8872L7.21875 44.8989L7.9707 42.8071L8.42188 41.6865L8.87305 41.0142L9.32422 40.6406L10.001 40.3418Z" fill="#010102"/>
<path d="M77.1504 60.9609L78.5791 61.0356L80.5342 61.3345L82.1133 61.7827L83.4668 62.3057L85.1211 63.2021L86.0986 63.7998L87.0762 64.6216L87.9033 65.2939L88.4297 65.7422L89.1064 66.564L89.708 67.311L90.3096 68.1328L91.5879 70.5234L92.1895 72.167L92.5654 73.8105L92.7158 74.8564L92.791 75.8276V77.3965L92.4902 79.6377L91.9639 81.5054L91.3623 82.9248L90.46 84.5684L89.9336 85.3901L89.1064 86.3613L88.4297 87.1831L87.7529 87.8555L85.873 89.3496L83.918 90.3955L82.8652 90.9185L81.5117 91.3667L79.9326 91.7402L78.2783 91.9644H76.3232L74.5186 91.7402L72.6387 91.292L71.21 90.769L69.1797 89.7231L68.3525 89.2002L67.5254 88.5278L66.5479 87.7061L66.0215 87.2578L65.3447 86.436L64.5176 85.4648L63.8408 84.3442L62.7881 82.3271L62.3369 81.1318L61.8857 79.2642L61.7354 78.3677L61.6602 77.3965V75.5288L61.8105 74.1094L62.1865 72.4658L62.5625 71.2705L63.0137 70.1499L63.6904 68.9546L64.1416 68.0581L64.9688 67.0122L65.7959 66.041L66.3223 65.4434L67.375 64.5469L68.127 63.9492L68.8789 63.4263L70.3076 62.6792L71.5107 62.0815L73.0898 61.5586L74.293 61.2598L75.8721 61.0356L77.1504 60.9609Z" fill="#FDE79A"/>
<path d="M77.1504 60.9609L78.5791 61.0356L80.5342 61.3345L82.1133 61.7827L83.0908 62.1562L82.8652 62.231L81.8125 61.9321L81.7373 61.8574H81.2109L80.835 61.708V61.5586L80.3838 61.6333V61.5586L79.8574 61.4839H78.8047L77.5264 61.3345L76.8496 61.4092L75.8721 61.9321L75.1201 62.5298L74.293 63.2021L73.6914 63.7251L73.2402 64.248H73.0898L72.9395 64.5469L72.2627 65.2939L72.1123 65.5181H71.9619L71.8115 65.8169L70.7588 67.3857L69.9316 68.9546L69.1797 70.8223L68.7285 72.3911L68.3525 74.3335L68.2021 76.1265V76.9482L68.4277 79.3389L68.8789 81.2065L69.4805 82.9995L70.1572 84.4937L70.6084 85.2407L71.0596 86.0625L72.0371 87.4072L72.7139 88.1543L73.2402 88.752L73.8418 89.4243L74.4434 89.9473L75.4961 90.769L76.3232 91.292L77 91.5908L77.6016 91.6655H79.9326V91.7402L78.2783 91.9644H76.3232L74.5186 91.7402L72.6387 91.292L71.21 90.769L69.1797 89.7231L68.3525 89.2002L67.5254 88.5278L66.5479 87.7061L66.0215 87.2578L65.3447 86.436L64.5176 85.4648L63.8408 84.3442L62.7881 82.3271L62.3369 81.1318L61.8857 79.2642L61.7354 78.3677L61.6602 77.3965V75.5288L61.8105 74.1094L62.1865 72.4658L62.5625 71.2705L63.0137 70.1499L63.6904 68.9546L64.1416 68.0581L64.9688 67.0122L65.7959 66.041L66.3223 65.4434L67.375 64.5469L68.127 63.9492L68.8789 63.4263L70.3076 62.6792L71.5107 62.0815L73.0898 61.5586L74.293 61.2598L75.8721 61.0356L77.1504 60.9609Z" fill="#FEE076"/>
<path d="M76.6992 15.9873L77.4512 16.062L78.1279 16.3608L78.5791 16.7344L79.0303 17.4814L79.1807 18.0791L79.2559 27.791L79.0303 28.6875L78.5791 29.3599L77.9023 29.8828L77.3008 30.1069H76.4736L75.7217 29.8081L75.1201 29.2852L74.7441 28.6875L74.5938 28.0898V18.1538L74.7441 17.5562L75.0449 16.9585L75.6465 16.3608L76.3232 16.062L76.6992 15.9873Z" fill="#010102"/>
<path d="M38.0488 95.1021L38.8008 95.2515L39.4023 95.5503L40.0039 96.2227L40.3047 96.895V97.9409L39.9287 98.688L39.1768 99.3604L37.8232 100.107L35.8682 101.153L34.2139 102.05L32.2588 103.096L30.9053 103.843L30.0029 104.142L29.251 104.216L28.4238 103.917L27.8975 103.469L27.4463 102.722L27.2959 102.125L27.3711 101.377L27.7471 100.63L28.2734 100.107L29.251 99.5098L31.2061 98.4639L32.8604 97.5674L34.0635 96.895L35.1162 96.3721L36.7705 95.4756L37.5977 95.1768L38.0488 95.1021Z" fill="#010102"/>
<path d="M76.8496 122.52L77.6016 122.669L78.2031 122.968L78.7295 123.565L79.0303 124.238L79.1055 124.537L79.1807 134.249L79.0303 134.921L78.6543 135.668L78.3535 136.042L77.6016 136.49L77 136.639L76.3232 136.564L75.7217 136.34L74.9697 135.668L74.6689 134.996L74.5938 134.697V124.537L74.8193 123.864L75.2705 123.192L75.8721 122.744L76.3232 122.594L76.8496 122.52Z" fill="#010102"/>
<path d="M110.312 103.917L111.214 104.067L111.966 104.515L113.019 105.412L113.996 106.308L114.748 106.98L115.575 107.653L116.553 108.549L117.154 109.072L117.906 109.745L118.282 110.193L118.583 110.716L118.809 111.313V111.836L118.508 112.658L117.831 113.405L117.154 113.704L116.778 113.779H116.252L115.5 113.555L114.673 113.032L113.771 112.21L113.169 111.687L112.267 110.865L111.515 110.193L110.688 109.521L109.409 108.325L108.582 107.503L108.206 106.756L108.131 106.532V105.935L108.356 105.188L108.808 104.59L109.409 104.142L110.312 103.917Z" fill="#010102"/>
<path d="M41.5078 45.4966H42.4854L43.1621 45.7954L43.8389 46.2437L44.8916 47.1401L46.1699 48.186L47.1475 49.0078L47.9746 49.6802L49.2529 50.7261L49.7793 51.3237L50.0801 51.9961L50.1553 52.2202V52.8926L49.8545 53.6396L49.4785 54.1626L48.6514 54.6855L48.3506 54.7603H47.2979L46.5459 54.3867L45.4932 53.5649L44.5156 52.7432L43.6885 52.0708L42.7109 51.249L41.6582 50.4272L40.8311 49.6802L40.4551 49.3813L39.9287 48.6343L39.7031 47.9619L39.7783 47.0654L40.1543 46.3931L40.7559 45.7954L41.5078 45.4966Z" fill="#010102"/>
<path d="M15.0391 32.7964H15.9414L16.6182 33.0205L17.1445 33.394L17.5957 34.1411L17.7461 34.5146V35.5605L17.2949 36.457L16.6182 37.2788L16.0918 37.8765L15.415 38.3247L14.8887 38.4741H14.1367L13.2344 38.1753L12.8584 37.8018L12.4072 37.1294L12.2568 36.6812V35.9341L12.6328 34.9629L13.46 33.917L13.9111 33.394L14.5879 32.9458L15.0391 32.7964Z" fill="#020102"/>
<path d="M79.1055 96.4468H79.1807L79.2559 96.8203L79.4062 101.751V110.865L79.3311 114.227L79.2559 115.348L79.1055 115.646V96.4468Z" fill="#FC4463"/>
<path d="M68.7285 147.173L69.2549 147.248L71.1348 147.696L72.3379 147.92L74.2178 148.144L75.7969 148.219H77.6768L80.1582 148.069L82.2637 147.771L84.4443 147.248L84.7451 147.322L83.0156 147.771L81.1357 148.144L78.5039 148.443H75.1953L73.165 148.219L71.7363 147.995L69.7061 147.546L68.7285 147.248V147.173Z" fill="#FC4463"/>
<path d="M79.1055 124.537H79.1807L79.2559 125.209L79.3311 127.749V132.082L79.2559 134.398L79.1055 134.697V124.537Z" fill="#FC4463"/>
<path d="M55.1182 122.744H55.1934L55.1182 123.64L54.8926 125.134L54.7422 127.002V129.916L54.8926 131.634L55.1934 133.352L55.3438 134.024L55.2686 134.323L54.9678 133.128L54.7422 132.007L54.5166 130.214V126.927L54.8174 124.387L55.1182 122.744Z" fill="#FC4463"/>
<path d="M29.4766 72.9888L30.3037 73.0635L31.4316 73.2876L33.0107 73.5117L35.6426 73.8105L41.1318 74.1094L41.8086 74.1841V74.2588H40.6807L36.9961 74.1094L34.5898 73.8853L32.1836 73.5864L29.4766 73.0635V72.9888Z" fill="#FC4463"/>
<path d="M57.1484 73.8853L57.2236 74.1841L57.0732 74.2588L48.8018 74.3335L49.0273 74.1841L49.2529 74.1094L50.9072 74.0347H53.0879L57.1484 74.1094V73.8853Z" fill="#FC4463"/>
<path d="M140.766 62.8286L140.841 62.978L140.164 64.0239L139.262 65.2192L138.059 66.4893L137.532 67.0122L136.705 67.6846L135.427 68.6558L134.6 69.1787L134.449 69.104L135.953 68.0581L136.705 67.4604L137.607 66.6387L138.209 66.1157L138.886 65.3687L139.562 64.5469L140.54 63.2021L140.766 62.8286Z" fill="#FC4463"/>
<path d="M97.2275 74.2588L97.3027 74.4829L99.7842 74.4082H101.664L102.717 74.4829L103.018 74.6323H97.3027L97.2275 74.2588Z" fill="#FC4463"/>
<path d="M96.0244 139.254L96.0996 139.403L95.3477 140.449L94.5205 141.42L93.6182 142.392L92.8662 143.064L91.8135 143.886L91.0615 144.409L90.084 145.006L89.9336 144.932L91.5127 143.886L92.1895 143.363H92.3398V143.213L93.0918 142.616L93.3926 142.317H93.543V142.167L94.0693 141.719L94.5205 141.122L94.8965 140.748L95.6484 139.777L96.0244 139.254Z" fill="#FC4463"/>
<path d="M98.8066 124.387H98.8818L99.1074 126.18L99.1826 127.002V130.364L98.957 132.082L98.7314 133.203H98.6562V132.68L98.8818 131.559L98.957 130.214L99.0322 129.766V127.525L98.8066 124.91V124.387Z" fill="#FC4463"/>
<path d="M106.477 34.7388L106.627 34.8135L103.92 37.5029V37.2788L105.048 36.0835L106.025 35.187L106.477 34.7388Z" fill="#FC526E"/>
<path d="M80.5342 61.4092L81.1357 61.4839L82.9404 62.0815L83.0908 62.231L82.4141 62.0815L81.8125 61.9321L81.7373 61.8574H81.2109L80.835 61.708V61.5586L80.3838 61.6333L80.5342 61.5586V61.4092Z" fill="#FEC773"/>
<path d="M81.7373 61.708L82.5645 61.9321L83.0908 62.1562L82.8652 62.231L81.8125 61.9321L81.7373 61.708Z" fill="#FEBB72"/>
</svg>
