<svg width="90" height="75" viewBox="0 0 90 75" fill="none" xmlns="http://www.w3.org/2000/svg">
<g clip-path="url(#clip0_284_5919)">
<path d="M0.966797 0H63.6328L64.2041 0.292969L64.4678 0.585938L64.5996 0.842285L64.6436 1.06201V10.1807L64.9072 10.0342L64.9512 9.96094H65.0391L65.127 9.81445L66.0498 9.04541H66.1377L66.2256 8.89893H66.3135L66.4014 8.75244H66.4893L66.5332 8.64258L66.7529 8.45947H66.8408L66.9287 8.31299H67.0166L67.1045 8.1665H67.1924L67.2803 8.02002H67.3682L67.4561 7.87354H67.5439L67.6318 7.72705H67.7197L67.8076 7.58057H67.8955L67.9834 7.43408H68.0713L68.1592 7.2876H68.2471L68.335 7.14111H68.4229L68.5107 6.99463H68.5986L68.6865 6.84814H68.7744L68.8623 6.70166H68.9502L69.0381 6.55518H69.126L69.2139 6.40869H69.3018L69.3896 6.26221H69.4775L69.5654 6.11572H69.6533L69.7412 5.96924H69.8291L69.917 5.82275L71.0156 4.90723L71.3672 4.6875L71.7627 4.54102L72.2021 4.50439L72.6416 4.61426L73.0371 4.83398L75.498 6.88477L75.5859 6.92139V6.99463L75.7178 7.03125L75.9375 7.21436L75.9814 7.32422L76.1572 7.2876L78.3105 5.49316L78.7939 5.16357L79.3652 4.83398L80.0684 4.50439L80.7275 4.28467L81.2988 4.13818L82.2217 3.9917H83.7598L84.5508 4.10156L85.4736 4.32129L86.2646 4.61426L87.0117 4.98047L87.4512 5.27344L87.9785 5.67627L88.3301 5.96924L88.7695 6.44531L89.165 6.99463L89.5166 7.61719L89.7803 8.27637L90 9.11865V10.3271L89.7803 11.1694L89.5605 11.792L89.209 12.4512L88.7256 13.1104L88.3301 13.5132L87.8467 13.9893L65.127 32.9224L64.7754 33.1787L64.6436 33.3618V51.2695L64.5996 51.8921L64.4238 52.2217L64.248 52.4414L63.8086 52.6611L63.3252 52.771V55.7373L63.8965 55.8838L64.248 56.1035L64.5117 56.3965L64.5996 56.6162L64.6436 56.8726V73.6084L64.5996 74.1211L64.4678 74.4141L64.1602 74.7437L63.7207 74.9268L63.501 75H16.6113L16.2158 74.8535L15.8203 74.6338L0.351562 61.7432L0.0439453 61.3037L0 61.1938V0.805664L0.263672 0.439453L0.571289 0.183105L0.966797 0ZM72.0703 7.17773L71.6748 7.4707L71.3672 7.76367L64.9951 13.0737L64.6436 13.3301L64.5996 16.8091L64.6875 16.8823L74.1797 8.97217V8.8623H74.0918V8.78906L73.7842 8.56934L73.5645 8.34961L73.3447 8.1665H73.2568L73.1689 8.02002H73.0811L72.9932 7.87354H72.9053L72.8174 7.72705L72.5537 7.54395L72.334 7.36084L72.1582 7.17773H72.0703Z" fill="#F8F8F8"/>
<path d="M0.966797 0H63.6328L64.2041 0.292969L64.4678 0.585938L64.5996 0.842285L64.6436 1.06201V10.1807L64.9072 10.0342L64.9512 9.96094H65.0391L65.127 9.81445L66.0498 9.04541H66.1377L66.2256 8.89893H66.3135L66.4014 8.75244H66.4893L66.5332 8.64258L66.7529 8.45947H66.8408L66.9287 8.31299H67.0166L67.1045 8.1665H67.1924L67.2803 8.02002H67.3682L67.4561 7.87354H67.5439L67.6318 7.72705H67.7197L67.8076 7.58057H67.8955L67.9834 7.43408H68.0713L68.1592 7.2876H68.2471L68.335 7.14111H68.4229L68.5107 6.99463H68.5986L68.6865 6.84814H68.7744L68.8623 6.70166H68.9502L69.0381 6.55518H69.126L69.2139 6.40869H69.3018L69.3896 6.26221H69.4775L69.5654 6.11572H69.6533L69.7412 5.96924H69.8291L69.917 5.82275L71.0156 4.90723L71.3672 4.6875L71.7627 4.54102L72.2021 4.50439L72.6416 4.61426L73.0371 4.83398L75.498 6.88477L75.5859 6.92139V6.99463L75.7178 7.03125L75.9375 7.21436L75.9814 7.32422L76.1572 7.2876L78.3105 5.49316L78.7939 5.16357L79.3652 4.83398L80.0684 4.50439L80.7275 4.28467L81.2988 4.13818L82.2217 3.9917H83.7598L84.5508 4.10156L85.4736 4.32129L86.2646 4.61426L87.0117 4.98047L87.4512 5.27344L87.9785 5.67627L88.3301 5.96924L88.7695 6.44531L89.165 6.99463L89.5166 7.61719L89.7803 8.27637L90 9.11865V10.3271L89.7803 11.1694L89.5605 11.792L89.209 12.4512L88.7256 13.1104L88.3301 13.5132L87.8467 13.9893L65.127 32.9224L64.7754 33.1787L64.6436 33.3618V51.2695L64.5996 51.8921L64.4238 52.2217L64.248 52.4414L63.8086 52.6611L63.501 52.7344H63.1055L62.71 52.6245L62.3584 52.4048L62.1826 52.2217L62.0068 51.8188V35.5225L61.6553 35.7788L61.4355 35.9985L61.084 36.2549L41.0889 52.9175L40.6494 53.1372L27.9932 57.2021L27.5977 57.312H26.8945L26.4551 57.1289L26.1475 56.8359L25.9717 56.5063V56.0303L26.1475 55.5542L26.3672 55.0781L26.2354 55.0415H23.9062L23.4229 54.9683L23.0713 54.8218L22.7197 54.4922L22.5879 54.1992L22.5439 53.8696L22.6318 53.54L22.8955 53.1738L23.2471 52.9541L23.6865 52.8442L27.3779 52.8076L27.5977 52.4414L29.3555 48.6328L30.2783 46.6187L31.0254 45.0439L31.333 44.6411L41.3525 36.2915L41.3965 36.2183L41.1328 36.2549H31.0254L30.4541 36.1816L30.0146 35.9619L29.707 35.6323L29.6191 35.4126V34.8999L29.7949 34.5703L30.1025 34.2773L30.3662 34.1309L30.6738 34.0576L31.377 34.021H44.0771L62.0508 19.043L62.0068 18.7134V15.6006L61.6553 15.8569L57.041 19.7021L56.6895 19.8853L56.3818 19.9585H55.8984L55.5029 19.8486L55.1074 19.5557L54.9316 19.2627L54.8438 18.9697L54.8877 18.6035L55.1074 18.2373L55.5029 17.8711L61.9189 12.5244L61.9629 12.4512V2.23389H2.68066L2.63672 59.8755H16.9189L17.4902 60.022L17.8418 60.2783L18.0615 60.6079L18.1055 60.791L18.1494 72.8027L25.8398 72.7661H62.0068V56.6528L62.1826 56.2866L62.4023 56.0669L62.7979 55.8472L63.1055 55.7739L63.6768 55.8105L64.1162 55.9937L64.4238 56.2866L64.5996 56.6162L64.6436 56.8726V73.6084L64.5996 74.1211L64.4678 74.4141L64.1602 74.7437L63.7207 74.9268L63.501 75H16.6113L16.2158 74.8535L15.8203 74.6338L0.351562 61.7432L0.0439453 61.3037L0 61.1938V0.805664L0.263672 0.439453L0.571289 0.183105L0.966797 0ZM72.0703 7.17773L71.6748 7.4707L71.3672 7.76367L64.9951 13.0737L64.6436 13.3301L64.5996 16.8091L64.6875 16.8823L74.1797 8.97217V8.8623H74.0918V8.78906L73.7842 8.56934L73.5645 8.34961L73.3447 8.1665H73.2568L73.1689 8.02002H73.0811L72.9932 7.87354H72.9053L72.8174 7.72705L72.5537 7.54395L72.334 7.36084L72.1582 7.17773H72.0703Z" fill="#010000"/>
<path d="M60.0732 23.8037L60.249 23.8403L66.2256 28.8208L66.0938 29.0039L65.918 29.1504H65.8301L65.7422 29.2969H65.6543L65.5664 29.4434L41.6602 49.3652H41.5723L41.4844 49.5117H41.3965L41.3086 49.6582H41.2207L41.1328 49.8047L40.4736 50.354L40.21 50.5371L39.9023 50.3174L34.1016 45.4834L34.3652 45.2271L60.0732 23.8037Z" fill="#FDC257"/>
<path d="M82.9248 6.15234L83.6279 6.18896L84.2432 6.29883L84.9463 6.51855L85.6055 6.84814L86.1768 7.2876L86.5283 7.61719L86.8799 8.09326L87.0996 8.49609L87.2754 9.04541L87.3193 9.30176V10.2905L87.0996 10.9863L86.9238 11.3159L86.6162 11.792L86.2207 12.1948L85.8252 12.561L68.1592 27.2827L67.9834 27.2095L62.0508 22.2656L62.0947 22.0825L62.3584 21.8994L62.4023 21.8262H62.4902L62.5781 21.6797L79.9805 7.17773L80.4639 6.84814L80.8594 6.62842L81.5186 6.37207L82.1338 6.22559L82.9248 6.15234Z" fill="#FB7783"/>
<path d="M85.6055 6.88477L85.957 7.10449L86.3965 7.4707L86.7041 7.83691L87.0557 8.42285L87.2754 9.04541L87.3193 9.30176V10.2905L87.0996 10.9863L86.9238 11.3159L86.6162 11.792L86.2207 12.1948L85.8252 12.561L68.1592 27.2827L67.9834 27.2095L65.918 25.4883L66.0059 25.4517L66.1816 25.5249L66.2256 25.3418H66.3574L66.4453 25.1953L66.5771 25.0854H66.665L66.7529 24.939L66.8848 24.9023L66.9727 24.7559L67.9834 23.9136L68.291 23.6938L68.5107 23.4741L68.8184 23.2544L69.0381 23.0347L69.3457 22.8149L69.3896 22.7417H69.4775V22.6685H69.5654V22.5952H69.6533V22.522H69.7412V22.4487H69.8291V22.3755H69.917V22.3022H70.0049V22.229H70.0928V22.1558L70.4004 21.936L70.6201 21.7163H70.708V21.6431H70.7959V21.5698H70.8838V21.4966H70.9717L71.1035 21.2769H71.2354V21.2036H71.3232V21.1304H71.4111L71.499 20.9839L71.543 20.874H71.6309V20.8008H70.8838L70.4443 20.6543L70.1367 20.4712L69.873 20.105L69.7852 19.8853V19.5557L69.9609 19.1528L70.4443 18.7134L71.2354 18.0542L71.6309 17.8711L71.9824 17.7979L72.4219 17.8345L72.8174 17.981L73.0371 18.1641L73.3008 18.457L73.3887 18.7134V19.2993L73.6523 19.1528L74.2236 18.7134L74.3994 18.6401V18.5669H74.4873V18.4937H74.5752L74.6631 18.3472H74.751V18.2739H74.8389L74.9707 18.0542H75.0586V17.981L75.2783 17.8345H75.3662L75.4541 17.6514L75.5859 17.4683H74.8389L74.4434 17.3584L74.0039 17.0288L73.8281 16.7725L73.7842 16.5894V16.1865L73.916 15.8936L74.1797 15.6006L75.1904 14.7583L75.6299 14.5386L75.8057 14.502H76.333L76.7725 14.6484L77.0801 14.8682L77.2998 15.1611L77.3877 15.4541V16.0034L77.8271 15.7104L77.8711 15.6372H77.959V15.564L78.3105 15.3076L78.5303 15.1245H78.6182L78.7061 14.978L78.8818 14.9048L78.9697 14.7583L79.4092 14.3921L79.3213 14.2456L79.2334 14.2822L78.9258 14.2456V14.1724H78.75V14.0991L78.5303 14.0625L78.2227 13.916L77.959 13.6597L77.7832 13.3301L77.7393 13.0005L77.8711 12.5977L78.1787 12.2681L79.1895 11.4258L79.541 11.2427L79.8486 11.1694H80.2441L80.6396 11.2793L80.9033 11.4258L81.167 11.6821L81.3428 12.0117L81.3867 12.3413V12.6343L81.5625 12.5244H81.6504V12.4512L81.8701 12.4146L81.958 12.2314L82.2217 12.0483L82.9248 11.4624H83.0127L83.1006 11.3159H83.1885L83.2764 11.1694L83.4521 11.0229H83.54L83.6279 10.8765H83.7158L83.8037 10.73H83.8916L83.9795 10.5835H84.0674L84.1553 10.437H84.2432L84.3311 10.2905L84.6826 9.8877H84.7705L84.8145 9.70459L84.9902 9.44824L85.1221 9.26514L85.166 9.04541L85.2539 9.00879L85.5176 8.31299L85.6055 7.94678L85.6934 7.2876L85.6055 7.06787V6.88477Z" fill="#E76C7A"/>
<path d="M63.8086 27.4297H64.1602L64.3359 27.5029V27.5762L64.5117 27.6128V27.686L64.6875 27.7593L65.0391 28.0522L65.3467 28.3452L65.5225 28.4917V28.5649L65.6982 28.6382L65.7861 28.8945L65.5664 29.1509H65.4785V29.2241H65.3906V29.2974H65.3027V29.3706H65.2148V29.4438L65.0391 29.5903H64.9512L64.8633 29.7368L62.4902 31.7144L62.2705 31.9341L61.9629 32.1538L61.7432 32.3735L61.3916 32.6299L42.0996 48.7065L41.8799 48.9263L41.5723 49.146L41.4844 49.2559H41.3965L41.3086 49.4023H41.2207L41.1768 49.5122L40.8252 49.7686L40.5176 50.0249L40.0342 50.2812L39.9023 50.3179L38.1885 48.8896L38.3203 48.6699L38.7598 48.1938L39.3311 47.791L39.9902 47.2051L42.583 45.0444H42.6709L42.7588 44.8979L42.9785 44.7148H43.0664L43.1543 44.5684H43.2422L43.2861 44.4585H43.374L43.4619 44.312H43.5498L43.6377 44.1655L54.4043 35.1934H54.4922L54.5801 35.0469H54.668L54.7559 34.9004H54.8438L54.9316 34.7539H55.0195L55.1074 34.6074H55.1953L55.2832 34.4609H55.3711L55.459 34.3145H55.5469L55.6348 34.168H55.7227L55.8105 34.0215H55.8984L55.9863 33.875H56.0742L56.1621 33.7285H56.25L56.3379 33.582H56.4258L56.5137 33.4355H56.6016L56.6895 33.2891H56.7773L56.8652 33.1426H56.9531L57.041 32.9961L57.3047 32.813L57.5244 32.5933L57.7881 32.4102L58.0518 32.1538H58.1396L58.2275 32.0073H58.3154L58.4033 31.8608H58.4912V31.7876H58.5791V31.7144H58.667V31.6411H58.7549V31.5679H58.8428V31.4946H58.9307V31.4214L59.1064 31.2749H59.1943L59.2383 31.165H59.3262L59.4141 31.0186H59.502L59.5898 30.8721L60.9082 29.7734L61.1279 29.5537L61.4795 29.2974L61.7871 29.041H61.875L61.9189 28.9312L62.2705 28.6748L62.5781 28.4185L62.9297 28.1621L63.8086 27.4297Z" fill="#FDB357"/>
<path d="M11.25 24.6465H40.6494L41.2207 24.7197L41.5723 24.9028L41.9238 25.2324L42.0557 25.562V25.9648L41.8799 26.3311L41.5723 26.624L41.1328 26.8071L40.957 26.8438L36.8262 26.8804H11.7334L10.9424 26.8438L10.5029 26.6973L10.1514 26.4409L9.93164 26.1113L9.8877 25.9648V25.562L10.0195 25.2324L10.2393 24.9761L10.5908 24.7563L10.8545 24.6831L11.25 24.6465Z" fill="#010000"/>
<path d="M21.1377 10.5469H42.9346L43.7695 10.5835L44.209 10.6934L44.6484 11.0229L44.8242 11.3159L44.8682 11.4258V11.9019L44.7363 12.1948L44.3408 12.561L43.9893 12.7075L43.8135 12.7441L42.4512 12.7808H21.3135L20.6104 12.7075L20.1709 12.4878L19.9072 12.2314L19.7754 11.9751L19.7314 11.792V11.5356L19.8633 11.1694L20.127 10.8765L20.4785 10.6567L20.7422 10.5835L21.1377 10.5469Z" fill="#010000"/>
<path d="M4.52637 62.0723H15.4688L15.5127 62.1455V71.1909L15.3369 71.1543L4.52637 62.1455V62.0723Z" fill="#F8F6F6"/>
<path d="M11.7334 34.0215H23.0713L26.8945 34.0581L27.3779 34.2046L27.6855 34.4243L27.9492 34.8638L27.9932 35.1567L27.9053 35.5596L27.6416 35.8892L27.2461 36.1455L26.9824 36.2188L25.8398 36.2554H11.3379L10.7227 36.1821L10.2832 35.9624L10.0195 35.6694L9.8877 35.3765V34.937L10.0635 34.5708L10.3711 34.2778L10.6348 34.1313L10.9424 34.0581L11.7334 34.0215Z" fill="#010000"/>
<path d="M22.2803 17.6152H36.6504L37.0459 17.6885L37.4414 17.9082L37.7051 18.2012L37.8369 18.5308V18.897L37.7051 19.2266L37.3096 19.5928L36.8701 19.7759L36.6504 19.8125H22.3682L21.8848 19.7026L21.5332 19.4829L21.2695 19.1899L21.1377 18.8237L21.1816 18.4209L21.4014 18.0547L21.709 17.7983L21.9287 17.6885L22.2803 17.6152Z" fill="#010000"/>
<path d="M19.4678 57.5312H31.0254L31.4648 57.6411L31.8604 57.8608L32.124 58.2271L32.2119 58.52L32.168 58.9229L31.9482 59.2891L31.5527 59.582L31.2012 59.6919L30.9375 59.7285H19.5557L19.0723 59.6187L18.6768 59.3989L18.4131 59.0327L18.3252 58.7764V58.4834L18.501 58.0806L18.7207 57.8242L19.1162 57.6045L19.4678 57.5312Z" fill="#010000"/>
<path d="M11.0742 43.4326H21.0498L21.4893 43.5059L21.8408 43.6523L22.1484 43.9453L22.3242 44.3115V44.7876L22.1484 45.1172L21.8408 45.4102L21.4014 45.5933L21.2256 45.6299H11.0303L10.5908 45.52L10.3271 45.3735L10.0635 45.1172L9.8877 44.751V44.3115L10.0635 43.9453L10.2832 43.7256L10.6787 43.5059L11.0742 43.4326Z" fill="#010000"/>
<path d="M32.7393 47.4238L33.0029 47.6069L37.5293 51.3789V51.4521L37.7051 51.5254L37.793 51.5986V51.7085L35.6396 52.4043L31.0693 53.8691L29.7949 54.272L29.5752 54.3086L29.6191 54.1621L30.3662 52.5142L31.1133 50.9028L31.9043 49.1816L32.6074 47.6802L32.7393 47.4238Z" fill="#FED687"/>
<path d="M34.9805 57.5312H43.6816L44.2529 57.6777L44.6484 57.9707L44.8682 58.3735V58.8496L44.6924 59.2158L44.4287 59.4722L43.9014 59.6919L43.6377 59.7285H35.0684L34.585 59.6187L34.1895 59.3989L33.9258 59.0693L33.8379 58.8496V58.4102L34.0137 58.0439L34.2334 57.8242L34.6289 57.6045L34.9805 57.5312Z" fill="#010000"/>
<path d="M44.9561 24.6465H50.5371L51.1084 24.6831L51.5039 24.8296L51.8555 25.0859L52.0752 25.4521L52.1191 25.8184L51.9873 26.2578L51.6797 26.5874L51.3281 26.7705L50.9766 26.8438H44.8242L44.3848 26.7339L43.9014 26.3677L43.7256 26.0747L43.6816 25.8916V25.6353L43.8135 25.269L44.0771 24.9761L44.4287 24.7563L44.6484 24.6831L44.9561 24.6465Z" fill="#010000"/>
<path d="M11.0303 17.6152H16.875L17.3145 17.6885L17.71 17.9082L17.9736 18.2012L18.1055 18.4941V18.897L17.9297 19.2998L17.7539 19.4829L17.3584 19.7026L16.8311 19.8125H11.1182L10.6348 19.7026L10.2393 19.4829L9.97559 19.1533L9.8877 18.9336V18.4941L10.0635 18.1279L10.3711 17.835L10.8105 17.6519L11.0303 17.6152Z" fill="#010000"/>
<path d="M86.0889 7.36133L86.3086 7.43457L86.5283 7.61768L86.8799 8.09375L87.0996 8.49658L87.2754 9.0459L87.3193 9.30225V10.291L87.0996 10.9868L86.9238 11.3164L86.6162 11.7925L86.2207 12.1953L85.8252 12.5615L68.1592 27.2832L68.0713 27.2466L70.0488 25.5986L70.2246 25.4155H70.3125V25.3423H70.4004V25.269H70.4883V25.1958H70.5762V25.1226H70.6641V25.0493H70.752V24.9761H70.8398V24.9028H70.9277V24.8296H71.0156V24.7563H71.1035V24.6831H71.1914V24.6099H71.2793V24.5366H71.3672V24.4634H71.4551V24.3901H71.543V24.3169H71.6309V24.2437H71.7188V24.1704H71.8066V24.0972H71.8945V24.0239H71.9824V23.9507H72.0703V23.8774H72.1582V23.8042H72.2461V23.731H72.334V23.6577H72.4219V23.5845L72.5977 23.438H72.6855L72.7734 23.2915L78.3105 18.6772L78.5303 18.4575L78.8379 18.2378L79.0576 18.0181L79.3652 17.7983L79.585 17.5786L79.9365 17.3223L80.9473 16.48L81.167 16.2603L81.4746 16.0405L81.6943 15.8208L82.002 15.6011L82.2217 15.3813L82.5293 15.1616L82.749 14.9419L83.0566 14.7222L83.3203 14.4658L83.584 14.2827L83.8477 14.0264L84.1113 13.8433L84.3311 13.6235L84.6387 13.4038L84.8145 13.1841L85.1221 12.9644L85.3418 12.7446L85.6494 12.5249L85.8691 12.3052L86.1328 12.1221L86.3525 11.8657L86.4404 11.7192L86.4844 11.7559L86.5723 11.3896L86.4844 11.5361L86.3525 11.6094L86.2646 11.7192L86.0889 11.8291L86.0449 11.939L85.9131 11.9756L85.8691 12.0854L85.7812 12.1221L85.6494 12.3052L85.2979 12.5981H85.21L85.1221 12.7446H84.9902L84.9463 12.8545L84.6826 13.0376L84.5508 13.1475H84.4629V13.2573L84.2871 13.2939V13.4038L84.1113 13.4404V13.5137L83.9795 13.5869L83.9355 13.6968L83.7598 13.7334V13.8066H83.6719V13.8799H83.584V13.9531H83.4961V14.0264H83.4082V14.0996L83.1006 14.3193L82.8809 14.5391L82.5732 14.7588L81.8701 15.3447L81.6504 15.5645L81.3428 15.7842L81.0791 15.9673L80.9473 16.1138H80.8594L80.8154 16.2236L80.5518 16.4067L80.2881 16.6631L80.0684 16.8462H79.9805L79.8926 16.9927H79.8047L79.7168 17.1392H79.6289L79.541 17.2856H79.4531L79.3652 17.4321H79.2773L79.1895 17.5786H79.1016L79.0137 17.7251H78.9258L78.8379 17.8716H78.75L78.7061 17.9814L78.4863 18.1646H78.3984V18.2378L78.0908 18.4575L76.2891 19.959L76.0254 20.2153H75.9375L75.8496 20.3618H75.7617L75.6738 20.5083H75.5859L75.498 20.6548H75.4102L75.3223 20.8013H75.2344L75.1465 20.9478H75.0586L74.9707 21.0942H74.8828L74.7949 21.2407H74.707L74.6631 21.3506L74.3994 21.5337L74.1797 21.7534L73.8721 21.9731L73.6523 22.1562L73.4766 22.3394L73.1689 22.5591L72.9053 22.8154L72.7295 22.9619H72.6416L72.5537 23.1084L72.334 23.2915H72.2461L72.1582 23.438H72.0703L71.9824 23.5845H71.8945L71.8066 23.731L71.5869 23.8774L71.3232 24.1338L70.9717 24.3901L70.1367 25.0859L69.917 25.3057L69.7412 25.4521H69.6094L69.5654 25.5986L69.4336 25.6353L69.3457 25.7451L69.1699 25.855H69.082V25.9282L68.8623 26.0381L68.8184 26.0015L68.5547 26.0747L68.5107 25.9282L68.5547 25.855H68.6426L68.6865 25.7451L68.8184 25.7085V25.5986L69.0381 25.4155H69.126L69.1699 25.269H69.2578L69.3457 25.1226L69.4775 25.0859L69.5654 24.9395H69.6533L69.6973 24.8296L70.0488 24.5732L70.1807 24.5366L70.2246 24.4268L70.3125 24.3901L70.4443 24.207H70.5322L70.6201 24.0239L71.0156 23.5845H71.1035L71.1914 23.438H71.2793L71.2354 23.3281L71.4111 23.2183L71.543 23.145H71.6309L71.5869 23.0352L71.8066 22.9985L71.7627 22.8887L72.0703 22.8154L72.1582 22.6689L72.4219 22.4858L72.5537 22.376H72.6855L72.7295 22.2295L73.0811 22.0098H73.1689V21.9365L73.3008 21.8999L73.4326 21.7534H73.5205L73.5645 21.6436L73.6523 21.6069L73.6963 21.4971L73.8281 21.4604L73.96 21.2773H74.0479V21.2041H74.1357V21.1309H74.2236L74.2676 20.9844H74.3994V20.9111H74.4873V20.8379H74.5752L74.6631 20.6914H74.751L74.8389 20.5083L75.1465 20.2153L75.3662 19.9956L75.6299 19.8491L75.7178 19.7026L75.9375 19.5562L76.0693 19.4463H76.2012L76.2451 19.2632L76.4648 19.1533H76.5527L76.6406 19.0068H76.7285V18.9336L76.8164 18.8604L76.9922 18.8237L77.0361 18.7139H77.124L77.2119 18.5674L77.3877 18.5308V18.4209L77.5195 18.3843L77.5635 18.2744H77.6514L77.7393 18.1279L78.0469 17.835H78.1348L78.2227 17.6885L78.3105 17.5786L78.4424 17.542L78.6621 17.3223L78.7939 17.249L78.9258 17.0659H79.0137V16.9927H79.1016L79.1895 16.8462L79.4092 16.6265L79.6289 16.5166L79.8486 16.2603H79.9365L80.0244 16.1138L80.2002 16.0771L80.2881 15.894L80.332 15.8208L80.5518 15.7109L80.7715 15.5645L80.8154 15.4912H80.9473V15.418L81.2549 15.1982L81.4307 15.1616V15.0518H81.5625L81.6504 14.832H81.7822V14.7588H81.8701V14.6855H81.958L82.002 14.5391H82.0898L82.1338 14.4658L82.2656 14.4292L82.3096 14.3193L82.4414 14.2827L82.5293 14.0996H82.6611V14.0264L82.793 13.9897L82.9248 13.8066H83.0127V13.7334L83.1885 13.6602L83.4521 13.3672H83.54V13.2939L83.6719 13.2573L83.9355 13.001L84.6387 12.415H84.7266L84.8145 12.2686H84.9023L84.9902 12.0488L85.0342 11.9756H85.1221L85.21 11.8291L85.2979 11.5361L85.4297 11.3896L85.4736 11.1333L85.7373 10.877L85.8691 10.6572L85.957 10.0713L86.0889 9.85156L86.0449 9.7417L86.0889 9.63184H86.1768L86.2207 9.44873L86.2646 9.37549H86.3525L86.4404 9.11914H86.5723L86.6162 9.00928L86.6602 8.71631H86.748L86.792 8.56982L86.748 8.38672V8.27686H86.6602L86.4404 7.8374L86.3086 7.72754V7.61768H86.2207L86.0889 7.43457V7.36133Z" fill="#BD5867"/>
<path d="M25.1807 43.4326H29.1357L29.6191 43.5059L30.0146 43.7256L30.2783 43.9819L30.4102 44.2749L30.4541 44.6411L30.3223 45.0073L30.0586 45.3369L29.751 45.52L29.2676 45.6299H25.1807L24.7852 45.5566L24.4336 45.3735L24.126 45.0806L23.9941 44.8242L23.9502 44.4946L24.082 44.0552L24.3457 43.7622L24.7852 43.5059L25.1807 43.4326Z" fill="#010000"/>
<path d="M75.8057 14.502H76.333L76.7725 14.6484L77.0801 14.8682L77.2998 15.1611L77.3877 15.4541L77.3438 15.8936L77.0801 16.2598L76.6846 16.626L76.2012 17.0288L75.7617 17.3218L75.542 17.4316L75.3662 17.4683H74.8389L74.4434 17.3584L74.0039 17.0288L73.8281 16.7725L73.7842 16.5894V16.1865L73.916 15.8936L74.1797 15.6006L75.1904 14.7583L75.6299 14.5386L75.8057 14.502Z" fill="#010000"/>
<path d="M71.9824 17.7979L72.4219 17.8345L72.8174 17.981L73.0371 18.1641L73.3008 18.457L73.3887 18.7134V19.043L73.2129 19.4458L72.8613 19.812L72.1582 20.3979L71.8066 20.6177L71.499 20.7642L71.2793 20.8008H70.8838L70.4443 20.6543L70.1367 20.4712L69.873 20.105L69.7852 19.8853V19.5557L69.9609 19.1528L70.4443 18.7134L71.2354 18.0542L71.6309 17.8711L71.9824 17.7979Z" fill="#010000"/>
<path d="M79.8486 11.1699H80.2441L80.6396 11.2798L80.9033 11.4263L81.167 11.6826L81.3428 12.0122L81.3867 12.3418L81.2549 12.708L80.8594 13.1475L80.0684 13.8066L79.6289 14.063L79.3652 14.1362H78.75L78.3545 13.9897L78.0469 13.77L77.8271 13.4404L77.7393 13.1475L77.7832 12.8545L77.915 12.5615L78.1787 12.2686L79.1895 11.4263L79.541 11.2432L79.8486 11.1699Z" fill="#010000"/>
<path d="M32.2998 48.5234L32.3438 48.6333L32.2559 48.7798L32.2119 48.9629L32.0801 49.146L32.168 49.2192L32.2559 49.1826L32.2998 48.9629L32.4316 48.853L32.5195 48.6333L32.6514 48.5601V48.7798L32.5635 48.8896V49.0361H32.4756L32.5195 49.146L32.3438 49.439L32.2119 49.8418L32.0801 50.1714L31.8604 50.6475L31.6846 50.8306L31.4648 51.27L31.2451 51.3433L31.2012 51.4165L30.9814 51.4531L30.9375 51.6362L30.7178 52.0391H30.6738L30.7178 51.7827L31.377 50.3179L32.124 48.7065L32.168 48.5967L32.2998 48.5234Z" fill="#F6F0EE"/>
<path d="M32.7393 47.4238L33.0029 47.6069L33.5742 48.083V48.1929H33.3984V48.1196L33.2666 48.1562L32.915 48.0464L32.8271 48.2295L32.6953 48.4858L32.6074 48.3394H32.4756L32.3877 48.4858H32.2998L32.3438 48.2295L32.6953 47.4604L32.7393 47.4238Z" fill="#F1E1DD"/>
<path d="M15.4688 62.1465H15.5127V71.1919L15.3369 71.1553L15.4248 71.1187V68.2256L15.4688 62.1465Z" fill="#BD5867"/>
<path d="M32.6074 47.8271L32.6514 47.9004L32.8271 47.937V48.0103H32.915L32.8711 48.1567L32.6953 48.4863L32.6074 48.3398H32.4756L32.3877 48.4863H32.2998L32.3438 48.23L32.5195 47.8638L32.6074 47.8271Z" fill="#F5EEEA"/>
<path d="M82.9248 6.15234L83.6279 6.18896L84.2432 6.29883V6.33545L83.8916 6.29883L83.584 6.26221H82.6611L82.002 6.33545L81.5625 6.44531H81.4307V6.51855L81.2988 6.55518L81.2109 6.62842H80.9912L81.123 6.51855L81.6504 6.33545L82.1338 6.22559L82.9248 6.15234Z" fill="#C05968"/>
<path d="M32.2998 48.5234L32.3438 48.6333L32.2559 48.7798L32.2119 48.9629L32.0801 49.146L31.9482 49.1826L32.0801 48.8164L32.168 48.5967L32.2998 48.5234Z" fill="#F0DAD0"/>
<path d="M30.9375 51.4531L30.9814 51.563L30.7178 52.0391H30.6738L30.7178 51.7827L30.8496 51.4897L30.9375 51.4531Z" fill="#EFD4C6"/>
<path d="M32.7393 47.7539L32.959 47.7905L32.915 47.937L32.959 48.0103H32.8271V47.937L32.6514 47.9004L32.7393 47.7539Z" fill="#FFD888"/>
</g>
<defs>
<clipPath id="clip0_284_5919">
<rect width="90" height="75" fill="white"/>
</clipPath>
</defs>
</svg>
